<svg data-v-423bf9ae="" xmlns="http://www.w3.org/2000/svg" viewBox="0 0 849.963586625306 201" class="iconAboveSlogan"><!----><!----><!----><g data-v-423bf9ae="" id="d846134f-e455-4002-bc26-94a22abce67b" fill="#35291E" transform="matrix(4.10958893372029,0,0,4.10958893372029,-1.132285206978679,116.55083458644853)"><path d="M10.23 9.00L10.49 9.06Q10.14 9.91 9.20 11.03L9.20 11.03Q8.13 12.32 7.38 12.50L7.38 12.50Q6.37 11.65 4.82 11.65L4.82 11.65Q3.93 11.65 3.50 11.77L3.50 11.77Q3.23 11.76 2.76 11.90L2.76 11.90Q2.34 12.26 1.93 12.63L1.93 12.63Q1.29 13.19 0.92 13.20L0.92 13.20Q0.94 12.91 1.56 12.10Q2.18 11.28 2.18 11.23L2.18 11.23L2.18 10.21Q2.18 10.16 2.24 10.04Q2.30 9.91 2.30 9.87L2.30 9.87L2.30 4.49Q2.04 4.27 1.79 4.05L1.79 4.05Q1.36 3.68 1.27 3.68L1.27 3.68Q1.23 3.68 0.97 3.86L0.97 3.86Q0.62 4.10 0.53 4.14L0.53 4.14L0.28 4.09Q0.20 3.70 1.55 2.44Q2.90 1.18 3.32 1.18L3.32 1.18Q3.40 1.18 3.93 1.61L3.93 1.61Q4.42 2.00 4.62 2.20L4.62 2.20L4.65 7.73Q4.65 7.77 4.58 8.06Q4.51 8.36 4.51 8.41L4.51 8.41L4.51 9.35Q4.51 9.38 4.46 9.46Q4.41 9.55 4.40 9.62L4.40 9.62Q5.87 9.37 6.03 9.34Q6.20 9.32 6.87 9.32L6.87 9.32Q7.85 9.32 8.58 9.54Q9.30 9.76 9.17 9.76L9.17 9.76Q9.21 9.76 9.60 9.46L9.60 9.46Q10.07 9.11 10.23 9.00L10.23 9.00ZM18.07 9.81L18.07 9.81Q18.07 10.32 16.74 11.31L16.74 11.31Q15.60 12.17 15.25 12.26L15.25 12.26Q14.71 12.42 14.36 12.42L14.36 12.42Q14 12.42 13.15 12.16Q12.31 11.90 12.04 11.69L12.04 11.69Q11.20 11.03 11.20 9.41L11.20 9.41Q11.20 6.57 14.97 4.51L14.97 4.51Q15.06 4.69 15.52 4.87Q15.97 5.05 16.45 5.05L16.45 5.05Q16.72 5.05 16.84 4.96L16.84 4.96Q17.02 4.83 17.26 4.76L17.26 4.76Q17.32 4.82 17.32 4.89L17.32 4.89Q17.32 5.05 16.93 5.52L16.93 5.52Q15.75 6.89 14.80 6.89L14.80 6.89Q14.53 6.89 14.04 6.76L14.04 6.76Q13.51 6.62 13.31 6.48L13.31 6.48Q13.22 6.66 13.08 7.08L13.08 7.08L13.09 8.04Q13.10 8.01 13.41 7.79Q13.71 7.57 13.80 7.57L13.80 7.57Q14.85 7.78 14.94 7.78L14.94 7.78Q15.88 7.78 16.31 7.49L16.31 7.49Q17.05 6.99 17.37 6.87L17.37 6.87L17.42 7.01Q16.76 8.08 15.72 8.81Q14.69 9.55 13.68 9.65L13.68 9.65Q13.82 9.91 14.63 10.25Q15.44 10.58 16.02 10.58L16.02 10.58Q16.58 10.58 17.02 10.28L17.02 10.28Q17.70 9.81 18.02 9.69L18.02 9.69Q18.07 9.74 18.07 9.81ZM27.50 10.09L27.50 10.09Q27.50 11.75 25.93 13.43L25.93 13.43Q24.44 15.02 23.18 15.02L23.18 15.02Q21.90 15.02 20.75 14.51Q19.60 14 18.75 14L18.75 14Q17.99 14 17.79 14.14Q17.60 14.28 17.39 14.43L17.39 14.43Q17.09 14.63 16.91 14.66L16.91 14.66L16.91 14.46Q16.91 14.10 18.02 13.17L18.02 13.17Q19.05 12.32 19.32 12.28L19.32 12.28Q20.02 12.15 20.41 12.15L20.41 12.15Q21.22 12.15 22.46 12.66Q23.70 13.17 24.82 13.17L24.82 13.17Q25.41 13.17 25.56 12.77L25.56 12.77Q25.65 12.54 25.65 11.76L25.65 11.76Q25.65 11.06 25.30 10.58L25.30 10.58Q24.88 10.02 24.11 10.02L24.11 10.02Q24.01 10.02 23.30 10.16L23.30 10.16Q23.28 10.04 23.23 9.76L23.23 9.76Q22.50 10.35 22.23 10.44L22.23 10.44Q22.02 10.53 21.39 10.53L21.39 10.53Q20.58 10.53 19.92 10.11L19.92 10.11Q19.12 9.60 19.12 8.69L19.12 8.69Q19.12 7.43 20.47 5.92L20.47 5.92Q21.71 4.51 23.20 3.86L23.20 3.86Q23.59 4.40 24.44 4.40L24.44 4.40Q24.72 4.40 25.82 4.00L25.82 4.00L25.97 4.00L25.97 4.17Q25.97 4.30 25.55 4.77L25.55 4.77Q25.19 5.19 25.10 5.26L25.10 5.26L25.10 8.18Q25.20 8.22 25.44 8.19L25.44 8.19Q25.77 8.18 25.77 8.18L25.77 8.18Q26.66 8.18 27.12 8.82L27.12 8.82Q27.50 9.35 27.50 10.09ZM23.32 6.26L23.32 6.26L22.26 6.26Q22.06 6.24 21.45 5.81L21.45 5.81Q21.10 6.45 21.08 6.48L21.08 6.48Q20.97 6.72 20.97 7.03L20.97 7.03Q20.97 7.53 21.51 8.11Q22.05 8.68 22.51 8.68L22.51 8.68L23.25 8.68L23.25 6.55Q23.25 6.51 23.29 6.40Q23.32 6.29 23.32 6.26ZM37.10 10.44L37.10 10.44Q36.99 10.77 36.18 11.68L36.18 11.68Q35.29 12.68 34.89 12.68L34.89 12.68Q34.83 12.68 34.22 12.11L34.22 12.11Q33.56 11.51 33.53 11.28L33.53 11.28Q33.17 11.76 32.26 12.22Q31.35 12.68 30.83 12.68L30.83 12.68Q29.95 12.68 29.34 11.89L29.34 11.89Q28.83 11.20 28.83 10.46L28.83 10.46Q28.83 8.64 30.46 6.72L30.46 6.72Q31.92 5.01 33.22 4.65L33.22 4.65Q33.26 4.63 33.42 4.55Q33.57 4.47 33.63 4.47L33.63 4.47Q33.61 4.47 34.03 4.75Q34.44 5.04 34.93 5.04L34.93 5.04Q35.45 5.04 35.67 4.93L35.67 4.93Q35.85 4.83 36.09 4.86L36.09 4.86Q36.13 5.19 35.45 5.85L35.45 5.85L35.45 7.04Q35.45 7.10 35.49 7.24Q35.53 7.38 35.53 7.42L35.53 7.42L35.53 9.59Q35.90 9.94 36.60 10.58L36.60 10.58Q36.97 10.42 37.10 10.44ZM33.56 10.39L33.56 10.39L33.56 9.37Q33.56 9.31 33.52 9.17Q33.47 9.03 33.47 8.99L33.47 8.99L33.47 7.07Q33.45 7.06 32.91 7.06L32.91 7.06Q32.66 7.06 32.28 6.79L32.28 6.79Q32.02 6.59 31.75 6.40L31.75 6.40Q31.32 6.62 31.04 7.42L31.04 7.42Q30.80 8.09 30.80 8.67L30.80 8.67Q30.80 9.31 31.28 9.95L31.28 9.95Q31.82 10.71 32.59 10.71L32.59 10.71Q32.90 10.71 33.56 10.39ZM45.42 4.47L45.42 4.47Q45.42 5.00 44.09 5.98L44.09 5.98Q42.90 6.85 42.64 6.86L42.64 6.86Q42.56 6.87 42.34 6.89Q42.11 6.92 42.07 6.92L42.07 6.92Q41.29 6.92 40.57 6.19L40.57 6.19Q40.25 6.66 40.25 7.76L40.25 7.76Q40.25 8.78 40.77 9.53L40.77 9.53Q41.41 10.47 42.60 10.47L42.60 10.47Q43.01 10.47 43.50 10.22L43.50 10.22Q44.24 9.84 44.59 9.72L44.59 9.72Q44.38 10.57 43.08 11.50Q41.78 12.43 40.84 12.43L40.84 12.43Q39.61 12.43 38.91 11.54L38.91 11.54Q38.29 10.72 38.29 9.51L38.29 9.51Q38.29 9.49 38.39 8.50L38.39 8.50Q38.46 7.81 39.41 6.43L39.41 6.43Q39.62 6.13 40.53 5.22L40.53 5.22Q41.66 4.12 42.03 4.12L42.03 4.12Q42.34 4.12 42.78 4.54Q43.22 4.96 43.83 4.96L43.83 4.96Q44.17 4.96 44.49 4.77L44.49 4.77Q45.02 4.47 45.33 4.35L45.33 4.35Q45.42 4.44 45.42 4.47ZM55.96 10.21L55.96 10.21Q55.96 11.24 55.68 11.69L55.68 11.69Q54.98 12.77 53.80 13.89L53.80 13.89Q52.35 15.27 51.46 15.27L51.46 15.27Q51.41 15.27 49.62 14.86Q47.84 14.45 47.05 14.45L47.05 14.45Q46.28 14.45 46.17 14.59L46.17 14.59Q46.02 14.81 45.58 14.90L45.58 14.90Q45.54 14.85 45.54 14.77L45.54 14.77Q45.54 14.34 46.65 13.43L46.65 13.43Q47.71 12.56 48.09 12.53L48.09 12.53Q48.30 12.52 48.79 12.52L48.79 12.52Q49.66 12.52 51.39 12.94Q53.13 13.36 53.23 13.36L53.23 13.36Q54.04 13.36 54.04 11.94L54.04 11.94Q54.04 11.35 53.76 10.77L53.76 10.77Q53.35 9.91 52.60 9.91L52.60 9.91Q52.28 9.91 51.95 10.03Q51.63 10.15 51.62 10.15L51.62 10.15Q51.58 10.15 51.56 10.13Q51.53 10.11 51.49 10.11L51.49 10.11Q51.49 10.11 51.02 10.49L51.02 10.49Q50.46 10.93 49.91 11.20L49.91 11.20Q49.13 11.58 48.40 11.58L48.40 11.58Q45.96 11.58 45.96 9.23L45.96 9.23Q45.96 8.48 46.35 7.69L46.35 7.69Q46.62 7.14 47.39 6.01L47.39 6.01Q47.38 5.99 46.27 5.99L46.27 5.99Q46.23 5.94 46.23 5.87L46.23 5.87Q46.23 5.47 47.07 4.76L47.07 4.76Q47.80 4.13 48.05 4.07L48.05 4.07L49.90 4.12Q49.55 4.68 48.45 5.91L48.45 5.91Q47.88 6.55 47.88 7.42L47.88 7.42Q47.88 9.66 50.13 9.66L50.13 9.66Q50.61 9.66 51.46 9.28L51.46 9.28L51.46 6.40Q51.46 6.37 51.43 6.20Q51.39 6.03 51.39 5.95L51.39 5.95Q51.18 5.88 50.64 5.57L50.64 5.57Q50.67 5.29 51.35 4.48L51.35 4.48Q52.08 3.61 52.49 3.61L52.49 3.61Q52.47 3.61 53.30 4.12L53.30 4.12Q53.35 4.68 53.35 5.43L53.35 5.43L53.38 8.11Q54.33 7.99 54.33 7.99L54.33 7.99Q55.19 7.99 55.64 8.86L55.64 8.86Q55.96 9.49 55.96 10.21ZM73.26 8.05L73.26 8.05Q73.26 9.10 71.76 10.79L71.76 10.79Q70.21 12.54 69.08 12.54L69.08 12.54Q68.38 12.54 66.90 12.01Q65.42 11.48 64.18 11.48L64.18 11.48Q63.52 11.48 63.27 11.66L63.27 11.66Q62.93 11.91 62.68 11.97L62.68 11.97Q62.59 11.89 62.59 11.86L62.59 11.86Q62.59 11.35 63.66 10.35L63.66 10.35Q64.65 9.39 64.99 9.37L64.99 9.37Q65.07 9.37 65.38 9.27Q65.69 9.18 66.35 9.18L66.35 9.18Q67.52 9.18 68.21 9.39L68.21 9.39Q70.08 10.02 70.94 10.23L70.94 10.23Q70.95 10.22 70.95 10.09L70.95 10.09Q70.95 9.39 70.22 8.69Q69.48 7.98 68.74 7.98L68.74 7.98L67.65 7.98Q67.61 7.98 67.52 7.92Q67.44 7.87 67.40 7.87L67.40 7.87L66.37 7.87Q66.16 7.87 65.20 7.49L65.20 7.49Q64.41 7.18 64.20 7.07L64.20 7.07Q63.94 6.94 63.64 6.30L63.64 6.30Q63.38 5.70 63.38 5.42L63.38 5.42Q63.38 4.54 64.08 3.53L64.08 3.53Q64.75 2.59 65.83 1.81L65.83 1.81Q66.11 1.55 66.40 1.30L66.40 1.30Q66.89 0.88 67.12 0.88L67.12 0.88Q67.19 0.88 67.23 0.92L67.23 0.92Q67.35 1.05 68.06 1.39Q68.77 1.74 68.92 1.74L68.92 1.74Q68.96 1.74 68.99 1.72Q69.02 1.71 69.06 1.71L69.06 1.71Q69.09 1.71 69.31 1.82Q69.52 1.93 69.62 1.95L69.62 1.95Q70.94 2.17 71.53 2.17L71.53 2.17Q71.93 2.17 71.98 2.15Q72.03 2.13 72.60 1.85L72.60 1.85L72.81 1.90Q72.31 3.00 71.32 3.73Q70.34 4.47 69.43 4.47L69.43 4.47Q68.21 4.47 67.27 4.20L67.27 4.20Q65.91 3.81 65.81 3.78L65.81 3.78Q65.93 4.05 66.04 4.30L66.04 4.30Q66.21 4.63 66.42 4.75L66.42 4.75Q67.97 5.56 69.05 5.56L69.05 5.56Q69.08 5.56 69.22 5.54Q69.37 5.53 69.41 5.53L69.41 5.53Q69.45 5.53 69.73 5.60Q70.01 5.67 70.06 5.67L70.06 5.67L71.08 5.67Q71.62 5.67 72.34 6.27Q73.07 6.87 73.14 7.35L73.14 7.35Q73.16 7.50 73.21 7.61Q73.26 7.71 73.26 8.05ZM83.79 10.95L83.79 10.95Q83.79 11.34 82.91 12.11L82.91 12.11Q82.11 12.80 81.87 12.85L81.87 12.85Q81.62 12.31 80.85 12.31L80.85 12.31Q80.51 12.31 79.83 12.46L79.83 12.46L79.28 12.40Q79.60 11.86 80.08 11.24L80.08 11.24Q80.46 10.74 80.57 10.50L80.57 10.50Q80.74 10.12 80.74 9.53L80.74 9.53Q80.74 8.64 80.22 7.67L80.22 7.67Q79.56 6.41 78.48 6.41L78.48 6.41Q78.22 6.41 77.28 7.34L77.28 7.34L77.28 8.92Q77.28 8.96 77.25 9.01Q77.21 9.06 77.21 9.10L77.21 9.10L77.21 10.35Q77.21 10.35 77.64 10.67L77.64 10.67Q77.98 10.92 77.98 11.02L77.98 11.02Q77.98 11.41 77.10 12.18L77.10 12.18Q76.31 12.87 76.05 12.92L76.05 12.92Q75.96 12.82 75.22 12.25L75.22 12.25L75.22 10.78Q75.22 10.72 75.26 10.70Q75.31 10.67 75.31 10.61L75.31 10.61L75.31 8.46Q75.31 8.41 75.26 8.34Q75.22 8.26 75.22 8.20L75.22 8.20L75.22 4.07Q75.00 3.79 74.40 3.28L74.40 3.28Q74.24 3.36 74.09 3.46L74.09 3.46Q73.88 3.58 73.64 3.61L73.64 3.61L73.64 3.42Q73.64 3.08 74.77 2.11L74.77 2.11Q75.87 1.18 76.10 1.18L76.10 1.18Q76.22 1.18 76.71 1.66Q77.20 2.14 77.21 2.24L77.21 2.24L77.27 6.57Q79.42 4.44 80.25 4.44L80.25 4.44Q81.42 4.44 82.14 5.73L82.14 5.73Q82.71 6.73 82.71 7.74L82.71 7.74Q82.71 9.07 81.70 10.37L81.70 10.37Q81.89 10.37 82.24 10.35Q82.59 10.33 82.60 10.33L82.60 10.33Q82.94 10.33 83.27 10.43L83.27 10.43Q83.79 10.60 83.79 10.95ZM93.20 7.03L93.20 7.03Q93.20 8.20 91.83 9.55L91.83 9.55Q90.45 10.78 89.10 12.01L89.10 12.01Q88.94 12.17 88.44 12.26L88.44 12.26Q87.99 12.36 87.63 12.36L87.63 12.36Q86.65 12.36 85.76 11.56L85.76 11.56Q84.84 10.72 84.84 9.67L84.84 9.67Q84.84 8.26 85.96 6.47L85.96 6.47Q87.12 4.61 88.55 3.89L88.55 3.89Q88.56 3.92 88.55 4.06L88.55 4.06Q88.55 4.17 88.61 4.17L88.61 4.17Q88.75 4.17 89.29 4.03Q89.82 3.89 90.26 3.89L90.26 3.89Q91.52 3.89 92.39 4.89L92.39 4.89Q93.20 5.82 93.20 7.03ZM91.04 9.32L91.04 9.32L91.04 8.29Q91.04 7.77 90.31 6.97Q89.57 6.17 89.12 6.09L89.12 6.09Q88.54 5.99 88.35 5.99L88.35 5.99Q87.47 5.99 87.19 6.45L87.19 6.45Q87.00 6.79 87.00 7.76L87.00 7.76Q87.00 8.71 87.82 9.48Q88.65 10.25 89.53 10.25L89.53 10.25Q90.02 10.25 90.22 10.12L90.22 10.12Q90.36 10.04 91.04 9.32ZM101.26 7.27L101.26 7.27Q101.26 7.97 101.21 8.16L101.21 8.16Q101.14 8.51 100.72 9.30L100.72 9.30Q100.52 9.69 99.37 10.79L99.37 10.79Q98.13 12.00 97.72 12.00L97.72 12.00Q97.64 12.00 96.99 11.48L96.99 11.48Q96.63 12.84 96.31 13.43L96.31 13.43Q95.68 14.53 94.50 15.04L94.50 15.04Q95.34 13.16 95.34 12.39L95.34 12.39L95.34 11.23Q95.27 11.20 95.00 11.20L95.00 11.20Q94.53 11.20 94.08 11.28L94.08 11.28Q93.94 11.31 93.69 11.47L93.69 11.47Q93.39 11.65 93.27 11.69L93.27 11.69Q93.23 11.65 93.23 11.56L93.23 11.56Q93.23 11.14 94.23 10.35L94.23 10.35Q95.00 9.73 95.30 9.59L95.30 9.59Q95.28 9.04 95.26 8.43L95.26 8.43Q95.20 8.33 95.20 8.27L95.20 8.27L95.20 7.04Q94.74 6.64 94.53 6.43L94.53 6.43Q94.51 6.43 94.14 6.69L94.14 6.69Q93.93 6.83 93.77 6.79L93.77 6.79Q93.74 6.48 94.61 5.47Q95.48 4.45 95.93 4.45L95.93 4.45Q95.98 4.45 96.43 4.84L96.43 4.84Q96.94 5.26 96.99 5.46L96.99 5.46Q97.47 5.03 97.94 4.61L97.94 4.61Q98.52 4.12 98.88 4.12L98.88 4.12Q100.04 4.12 100.72 5.25L100.72 5.25Q101.26 6.17 101.26 7.27ZM99.50 8.85L99.50 8.85Q99.50 8.13 99.33 7.66Q99.16 7.20 98.66 6.48L98.66 6.48Q98.62 6.43 98.06 6.15Q97.50 5.88 97.36 5.88L97.36 5.88Q97.19 5.88 97.08 6.08Q96.96 6.29 96.96 6.40L96.96 6.40Q96.96 6.44 97.00 6.58Q97.03 6.72 97.03 6.76L97.03 6.76L97.03 7.90Q97.03 7.94 97.07 7.97Q97.10 7.99 97.10 8.04L97.10 8.04L97.10 9.44Q98.35 9.38 99.27 10.09L99.27 10.09Q99.50 9.63 99.50 8.85ZM109.10 7.27L109.10 7.27Q109.10 7.97 109.05 8.16L109.05 8.16Q108.98 8.51 108.56 9.30L108.56 9.30Q108.36 9.69 107.21 10.79L107.21 10.79Q105.97 12.00 105.56 12.00L105.56 12.00Q105.48 12.00 104.83 11.48L104.83 11.48Q104.47 12.84 104.15 13.43L104.15 13.43Q103.52 14.53 102.34 15.04L102.34 15.04Q103.18 13.16 103.18 12.39L103.18 12.39L103.18 11.23Q103.11 11.20 102.84 11.20L102.84 11.20Q102.37 11.20 101.92 11.28L101.92 11.28Q101.78 11.31 101.53 11.47L101.53 11.47Q101.23 11.65 101.11 11.69L101.11 11.69Q101.07 11.65 101.07 11.56L101.07 11.56Q101.07 11.14 102.07 10.35L102.07 10.35Q102.84 9.73 103.14 9.59L103.14 9.59Q103.12 9.04 103.10 8.43L103.10 8.43Q103.04 8.33 103.04 8.27L103.04 8.27L103.04 7.04Q102.58 6.64 102.37 6.43L102.37 6.43Q102.35 6.43 101.98 6.69L101.98 6.69Q101.77 6.83 101.61 6.79L101.61 6.79Q101.58 6.48 102.45 5.47Q103.32 4.45 103.77 4.45L103.77 4.45Q103.82 4.45 104.27 4.84L104.27 4.84Q104.78 5.26 104.83 5.46L104.83 5.46Q105.31 5.03 105.78 4.61L105.78 4.61Q106.36 4.12 106.72 4.12L106.72 4.12Q107.88 4.12 108.56 5.25L108.56 5.25Q109.10 6.17 109.10 7.27ZM107.34 8.85L107.34 8.85Q107.34 8.13 107.17 7.66Q107.00 7.20 106.50 6.48L106.50 6.48Q106.46 6.43 105.90 6.15Q105.34 5.88 105.20 5.88L105.20 5.88Q105.03 5.88 104.92 6.08Q104.80 6.29 104.80 6.40L104.80 6.40Q104.80 6.44 104.84 6.58Q104.87 6.72 104.87 6.76L104.87 6.76L104.87 7.90Q104.87 7.94 104.91 7.97Q104.94 7.99 104.94 8.04L104.94 8.04L104.94 9.44Q106.19 9.38 107.11 10.09L107.11 10.09Q107.34 9.63 107.34 8.85ZM113.15 1.85L113.36 1.85Q113.12 2.52 112.26 3.30Q111.40 4.09 110.91 4.03L110.91 4.03Q110.68 3.74 110.25 3.25L110.25 3.25Q109.83 3.57 109.66 3.57L109.66 3.57Q109.61 3.51 109.61 3.43L109.61 3.43Q109.61 3.02 110.62 2.10Q111.64 1.18 111.96 1.18L111.96 1.18Q112.10 1.18 112.42 1.53L112.42 1.53Q112.63 1.76 112.84 2.00L112.84 2.00Q112.94 1.96 113.15 1.85L113.15 1.85ZM113.40 9.34L113.40 9.34Q113.40 10.02 112.46 11.32Q111.52 12.61 110.99 12.60L110.99 12.60L110.82 12.60Q110.92 12.31 111.20 11.80L111.20 11.80Q111.41 11.44 111.41 11.14L111.41 11.14Q111.41 11.10 111.37 10.91Q111.33 10.72 111.33 10.67L111.33 10.67L111.33 8.53Q111.33 8.05 111.19 7.57L111.19 7.57Q110.99 6.93 110.63 6.93L110.63 6.93Q110.59 6.93 110.43 7.05Q110.26 7.17 110.21 7.17L110.21 7.17L109.96 7.17Q110.14 6.52 111.16 5.63L111.16 5.63Q112.11 4.79 112.45 4.82L112.45 4.82Q112.71 4.96 113.08 5.29L113.08 5.29Q113.33 5.80 113.33 6.64L113.33 6.64L113.33 8.76Q113.33 8.79 113.37 9.04Q113.40 9.28 113.40 9.34ZM123.73 10.50L123.73 10.50Q123.73 10.86 122.89 11.66Q122.04 12.46 121.76 12.46L121.76 12.46Q121.77 12.46 121.38 12.32Q120.99 12.18 120.68 12.18L120.68 12.18Q120.68 12.18 119.85 12.25L119.85 12.25Q119.76 12.17 119.76 12.11L119.76 12.11Q121.07 10.14 121.07 8.62L121.07 8.62Q121.07 7.57 121.09 8.12L121.09 8.12Q121.07 7.78 120.89 7.34L120.89 7.34Q120.81 7.11 120.70 6.88Q120.60 6.65 120.39 6.51L120.39 6.51Q120.01 6.24 119.45 6.01L119.45 6.01Q118.80 5.71 118.44 5.71L118.44 5.71Q118.16 5.71 118.09 5.77L118.09 5.77Q117.75 6.05 117.64 6.12L117.64 6.12L117.64 8.27Q117.64 8.79 117.47 9.98L117.47 9.98Q117.57 10.07 118.09 10.43L118.09 10.43Q118.50 10.71 118.50 10.77L118.50 10.77Q118.50 11.07 117.64 11.91Q116.77 12.74 116.49 12.74L116.49 12.74Q116.26 12.74 115.80 12.31Q115.35 11.89 115.35 11.70L115.35 11.70Q115.35 11.66 115.43 10.99Q115.51 10.32 115.51 10.26L115.51 10.26L115.51 7.50Q115.51 7.43 115.60 7.17L115.60 7.17Q115.40 7.04 114.46 6.41L114.46 6.41Q114.02 6.73 113.86 6.73L113.86 6.73Q113.82 6.73 113.78 6.72L113.78 6.72Q113.76 6.27 114.74 5.28Q115.72 4.28 116.20 4.28L116.20 4.28Q116.33 4.28 116.93 4.65L116.93 4.65Q117.61 5.05 117.74 5.31L117.74 5.31Q118.59 4.41 119.04 4.09L119.04 4.09Q119.67 3.64 120.29 3.64L120.29 3.64Q120.64 3.64 121.21 3.82L121.21 3.82Q122.01 4.09 122.56 4.58L122.56 4.58Q122.81 4.80 123.02 5.56L123.02 5.56Q123.20 6.23 123.20 6.69L123.20 6.69Q123.20 8.11 122.09 10.07L122.09 10.07Q122.56 10.11 123.02 10.15L123.02 10.15Q123.73 10.25 123.73 10.50ZM133.11 10.09L133.11 10.09Q133.11 11.75 131.54 13.43L131.54 13.43Q130.06 15.02 128.80 15.02L128.80 15.02Q127.51 15.02 126.36 14.51Q125.22 14 124.36 14L124.36 14Q123.61 14 123.41 14.14Q123.21 14.28 123.00 14.43L123.00 14.43Q122.71 14.63 122.53 14.66L122.53 14.66L122.53 14.46Q122.53 14.10 123.63 13.17L123.63 13.17Q124.67 12.32 124.94 12.28L124.94 12.28Q125.64 12.15 126.03 12.15L126.03 12.15Q126.84 12.15 128.08 12.66Q129.32 13.17 130.44 13.17L130.44 13.17Q131.03 13.17 131.18 12.77L131.18 12.77Q131.26 12.54 131.26 11.76L131.26 11.76Q131.26 11.06 130.91 10.58L130.91 10.58Q130.49 10.02 129.72 10.02L129.72 10.02Q129.63 10.02 128.91 10.16L128.91 10.16Q128.90 10.04 128.84 9.76L128.84 9.76Q128.11 10.35 127.85 10.44L127.85 10.44Q127.64 10.53 127.01 10.53L127.01 10.53Q126.20 10.53 125.54 10.11L125.54 10.11Q124.74 9.60 124.74 8.69L124.74 8.69Q124.74 7.43 126.08 5.92L126.08 5.92Q127.33 4.51 128.81 3.86L128.81 3.86Q129.21 4.40 130.06 4.40L130.06 4.40Q130.34 4.40 131.43 4.00L131.43 4.00L131.59 4.00L131.59 4.17Q131.59 4.30 131.17 4.77L131.17 4.77Q130.80 5.19 130.72 5.26L130.72 5.26L130.72 8.18Q130.82 8.22 131.05 8.19L131.05 8.19Q131.39 8.18 131.39 8.18L131.39 8.18Q132.27 8.18 132.73 8.82L132.73 8.82Q133.11 9.35 133.11 10.09ZM128.94 6.26L128.94 6.26L127.88 6.26Q127.68 6.24 127.06 5.81L127.06 5.81Q126.71 6.45 126.70 6.48L126.70 6.48Q126.59 6.72 126.59 7.03L126.59 7.03Q126.59 7.53 127.13 8.11Q127.67 8.68 128.13 8.68L128.13 8.68L128.87 8.68L128.87 6.55Q128.87 6.51 128.91 6.40Q128.94 6.29 128.94 6.26ZM150.22 1.62L150.46 1.68Q149.73 3.07 148.66 3.87Q147.59 4.68 146.54 4.68L146.54 4.68Q145.87 4.68 145.45 4.49L145.45 4.49Q144.86 4.23 144.26 3.44L144.26 3.44Q144.09 3.56 143.85 3.79L143.85 3.79Q143.65 4.21 143.49 5.24L143.49 5.24Q143.36 6.05 143.36 6.37L143.36 6.37Q143.36 7.99 144.63 9.02L144.63 9.02Q145.78 9.97 147.36 9.97L147.36 9.97Q147.90 9.97 148.53 9.72L148.53 9.72Q149.79 9.23 149.90 9.18L149.90 9.18Q149.18 10.72 147.71 11.68L147.71 11.68Q146.36 12.54 145.01 12.54L145.01 12.54Q143.25 12.54 142.07 11.58L142.07 11.58Q140.78 10.51 140.78 8.74L140.78 8.74Q140.78 5.98 142.77 3.74L142.77 3.74Q144.06 2.28 146.65 0.67L146.65 0.67Q147.56 2.10 148.88 2.10L148.88 2.10Q149.39 2.10 149.60 1.97L149.60 1.97Q150.14 1.65 150.22 1.62L150.22 1.62ZM159.67 7.03L159.67 7.03Q159.67 8.20 158.30 9.55L158.30 9.55Q156.93 10.78 155.57 12.01L155.57 12.01Q155.41 12.17 154.91 12.26L154.91 12.26Q154.46 12.36 154.10 12.36L154.10 12.36Q153.12 12.36 152.24 11.56L152.24 11.56Q151.31 10.72 151.31 9.67L151.31 9.67Q151.31 8.26 152.43 6.47L152.43 6.47Q153.59 4.61 155.02 3.89L155.02 3.89Q155.04 3.92 155.02 4.06L155.02 4.06Q155.02 4.17 155.08 4.17L155.08 4.17Q155.22 4.17 155.76 4.03Q156.30 3.89 156.73 3.89L156.73 3.89Q157.99 3.89 158.86 4.89L158.86 4.89Q159.67 5.82 159.67 7.03ZM157.51 9.32L157.51 9.32L157.51 8.29Q157.51 7.77 156.78 6.97Q156.04 6.17 155.60 6.09L155.60 6.09Q155.01 5.99 154.83 5.99L154.83 5.99Q153.94 5.99 153.66 6.45L153.66 6.45Q153.47 6.79 153.47 7.76L153.47 7.76Q153.47 8.71 154.29 9.48Q155.12 10.25 156.00 10.25L156.00 10.25Q156.49 10.25 156.69 10.12L156.69 10.12Q156.83 10.04 157.51 9.32ZM172.16 10.32L172.16 10.32Q172.07 10.64 171.32 11.49L171.32 11.49Q170.48 12.47 170.00 12.47L170.00 12.47Q169.85 12.47 168.46 12.25L168.46 12.25Q168.56 12.03 169.37 10.67L169.37 10.67Q169.83 9.90 169.83 9.34L169.83 9.34Q169.83 8.78 169.65 8.01L169.65 8.01Q169.50 7.29 169.36 7.10L169.36 7.10Q169.04 6.64 168.03 6.12L168.03 6.12Q167.92 6.06 167.69 5.84L167.69 5.84Q167.57 5.88 167.45 5.99L167.45 5.99L167.45 7.63Q167.45 7.69 167.50 7.76Q167.54 7.83 167.54 7.88L167.54 7.88L167.54 9.81Q168.10 10.26 168.10 10.37L168.10 10.37Q168.10 10.71 167.24 11.57Q166.39 12.43 166.07 12.43L166.07 12.43Q166.03 12.43 165.75 12.21Q165.47 12.00 165.31 11.96L165.31 11.96Q165.34 11.66 165.34 10.71L165.34 10.71Q165.34 10.25 165.30 9.86Q165.26 9.46 165.26 9.44L165.26 9.44L165.26 7.22L163.17 6.13Q162.88 6.69 162.82 6.97L162.82 6.97Q162.81 7.06 162.81 7.67L162.81 7.67Q162.81 8.40 163.13 9.16L163.13 9.16Q163.60 10.23 164.46 10.23L164.46 10.23Q164.50 10.23 164.72 10.21Q164.95 10.19 165.05 10.19L165.05 10.19Q164.70 11.02 163.97 11.69L163.97 11.69Q163.20 12.39 162.57 12.39L162.57 12.39Q161.60 12.39 161.04 11.30L161.04 11.30Q160.61 10.47 160.61 9.59L160.61 9.59Q160.61 8.32 161.81 6.57Q163.00 4.83 164.30 4.30L164.30 4.30Q164.33 4.28 164.63 4.07L164.63 4.07Q164.88 3.89 164.99 3.89L164.99 3.89Q165.06 3.89 166.13 4.44Q167.20 4.98 167.48 5.19L167.48 5.19Q169.09 3.60 169.74 3.56L169.74 3.56Q169.81 3.78 170.44 4.13L170.44 4.13Q171.15 4.54 171.41 4.90Q171.67 5.26 171.85 6.10L171.85 6.10Q172.03 6.89 172.03 7.42L172.03 7.42Q172.03 8.08 171.61 8.82L171.61 8.82Q171.23 9.46 170.84 10.12L170.84 10.12Q170.90 10.21 171.37 10.25L171.37 10.25Q172.02 10.29 172.16 10.32ZM180.28 7.27L180.28 7.27Q180.28 7.97 180.22 8.16L180.22 8.16Q180.15 8.51 179.73 9.30L179.73 9.30Q179.54 9.69 178.39 10.79L178.39 10.79Q177.14 12.00 176.74 12.00L176.74 12.00Q176.65 12.00 176.01 11.48L176.01 11.48Q175.64 12.84 175.32 13.43L175.32 13.43Q174.69 14.53 173.52 15.04L173.52 15.04Q174.36 13.16 174.36 12.39L174.36 12.39L174.36 11.23Q174.29 11.20 174.02 11.20L174.02 11.20Q173.54 11.20 173.10 11.28L173.10 11.28Q172.96 11.31 172.70 11.47L172.70 11.47Q172.41 11.65 172.28 11.69L172.28 11.69Q172.24 11.65 172.24 11.56L172.24 11.56Q172.24 11.14 173.25 10.35L173.25 10.35Q174.02 9.73 174.31 9.59L174.31 9.59Q174.30 9.04 174.27 8.43L174.27 8.43Q174.22 8.33 174.22 8.27L174.22 8.27L174.22 7.04Q173.75 6.64 173.54 6.43L173.54 6.43Q173.53 6.43 173.15 6.69L173.15 6.69Q172.94 6.83 172.79 6.79L172.79 6.79Q172.76 6.48 173.63 5.47Q174.50 4.45 174.94 4.45L174.94 4.45Q175 4.45 175.45 4.84L175.45 4.84Q175.95 5.26 176.01 5.46L176.01 5.46Q176.48 5.03 176.96 4.61L176.96 4.61Q177.53 4.12 177.90 4.12L177.90 4.12Q179.06 4.12 179.73 5.25L179.73 5.25Q180.28 6.17 180.28 7.27ZM178.51 8.85L178.51 8.85Q178.51 8.13 178.35 7.66Q178.18 7.20 177.67 6.48L177.67 6.48Q177.63 6.43 177.07 6.15Q176.51 5.88 176.37 5.88L176.37 5.88Q176.20 5.88 176.09 6.08Q175.98 6.29 175.98 6.40L175.98 6.40Q175.98 6.44 176.02 6.58Q176.05 6.72 176.05 6.76L176.05 6.76L176.05 7.90Q176.05 7.94 176.09 7.97Q176.12 7.99 176.12 8.04L176.12 8.04L176.12 9.44Q177.37 9.38 178.29 10.09L178.29 10.09Q178.51 9.63 178.51 8.85ZM185.68 9.95L185.68 9.95Q185.68 10.51 184.53 11.61L184.53 11.61Q183.46 12.61 183.15 12.66L183.15 12.66Q183.05 12.53 182.52 12.11L182.52 12.11Q182.22 11.87 182.22 11.55L182.22 11.55L182.22 7.41Q182.22 7.38 182.27 7.19Q182.31 7.00 182.31 6.94L182.31 6.94L182.31 3.92Q182.10 3.61 181.92 3.44L181.92 3.44Q181.48 3.74 181.05 3.93L181.05 3.93Q180.99 3.88 180.99 3.75L180.99 3.75Q180.99 3.30 182.07 2.24Q183.15 1.18 183.61 1.18L183.61 1.18Q183.74 1.18 184.07 1.48Q184.41 1.79 184.41 1.93L184.41 1.93L184.41 5.28Q184.41 5.32 184.37 5.43Q184.32 5.54 184.32 5.60L184.32 5.60L184.32 9.59Q184.32 9.72 184.53 9.97Q184.74 10.22 184.88 10.22L184.88 10.22Q184.91 10.22 185.18 10.04Q185.44 9.87 185.63 9.81L185.63 9.81Q185.68 9.87 185.68 9.95ZM193.47 9.81L193.47 9.81Q193.47 10.32 192.14 11.31L192.14 11.31Q190.99 12.17 190.64 12.26L190.64 12.26Q190.11 12.42 189.76 12.42L189.76 12.42Q189.39 12.42 188.55 12.16Q187.70 11.90 187.43 11.69L187.43 11.69Q186.59 11.03 186.59 9.41L186.59 9.41Q186.59 6.57 190.36 4.51L190.36 4.51Q190.46 4.69 190.91 4.87Q191.37 5.05 191.84 5.05L191.84 5.05Q192.11 5.05 192.23 4.96L192.23 4.96Q192.42 4.83 192.65 4.76L192.65 4.76Q192.71 4.82 192.71 4.89L192.71 4.89Q192.71 5.05 192.32 5.52L192.32 5.52Q191.14 6.89 190.19 6.89L190.19 6.89Q189.92 6.89 189.43 6.76L189.43 6.76Q188.90 6.62 188.71 6.48L188.71 6.48Q188.61 6.66 188.47 7.08L188.47 7.08L188.48 8.04Q188.50 8.01 188.80 7.79Q189.10 7.57 189.20 7.57L189.20 7.57Q190.25 7.78 190.33 7.78L190.33 7.78Q191.27 7.78 191.70 7.49L191.70 7.49Q192.44 6.99 192.77 6.87L192.77 6.87L192.81 7.01Q192.15 8.08 191.11 8.81Q190.08 9.55 189.07 9.65L189.07 9.65Q189.21 9.91 190.02 10.25Q190.83 10.58 191.41 10.58L191.41 10.58Q191.97 10.58 192.42 10.28L192.42 10.28Q193.09 9.81 193.41 9.69L193.41 9.69Q193.47 9.74 193.47 9.81ZM207.10 9.65L207.10 9.65Q206.65 10.75 205.45 11.54L205.45 11.54Q204.30 12.29 203.28 12.29L203.28 12.29Q200.97 12.29 198.80 9.46L198.80 9.46Q198.18 10.18 197.55 10.88L197.55 10.88Q196.27 12.25 195.90 12.25L195.90 12.25Q194.96 11.77 194.89 11.77L194.89 11.77Q194.85 11.77 194.49 11.98L194.49 11.98Q194.07 12.24 193.93 12.29L193.93 12.29Q193.87 12.24 193.87 12.14L193.87 12.14Q193.87 11.49 195.16 10.51L195.16 10.51Q196.36 9.60 196.83 9.60L196.83 9.60Q196.87 9.60 197.22 9.69Q197.57 9.77 197.61 9.77L197.61 9.77Q197.68 9.77 198.41 8.93L198.41 8.93Q197.51 7.90 195.82 5.92L195.82 5.92Q195.27 6.40 194.87 6.48L194.87 6.48Q194.81 6.43 194.81 6.33L194.81 6.33Q194.81 5.84 196.20 4.70L196.20 4.70Q197.39 3.74 197.72 3.61L197.72 3.61L200.31 6.61Q200.98 5.81 201.67 5.01L201.67 5.01Q203.01 3.53 203.53 3.53L203.53 3.53Q203.57 3.53 203.75 3.71Q203.92 3.89 204.04 3.95L204.04 3.95Q204.23 4.05 204.51 4.06L204.51 4.06Q204.75 4.06 204.81 4.14L204.81 4.14Q204.48 4.83 203.77 5.50L203.77 5.50Q202.99 6.22 202.44 6.22L202.44 6.22Q202.13 6.22 202.07 6.15Q202.01 6.09 201.81 6.05L201.81 6.05L200.89 7.22Q203.06 10.11 205.24 10.11L205.24 10.11Q205.53 10.11 206.21 9.89Q206.89 9.67 207.10 9.65Z"></path></g><defs data-v-423bf9ae=""><linearGradient data-v-423bf9ae="" gradientTransform="rotate(25)" id="ebea4a0b-b322-45b5-833d-740a03060a9f" x1="0%" y1="0%" x2="100%" y2="0%"><stop data-v-423bf9ae="" offset="0%" style="stop-color: rgb(95, 37, 23); stop-opacity: 1;"></stop><stop data-v-423bf9ae="" offset="100%" style="stop-color: rgb(255, 237, 181); stop-opacity: 1;"></stop></linearGradient></defs><g data-v-423bf9ae="" id="10d4b099-567d-4cb1-a41d-b871c10c55fd" transform="matrix(1.0868111504448785,0,0,1.0868111504448785,369.744749553976,-0.23894260335429607)" stroke="none" fill="url(#ebea4a0b-b322-45b5-833d-740a03060a9f)"><g clip-rule="evenodd"><path d="M12.983 10.59l17.018 88.223-5.872-59.049 29.021-1.892-.054-9.883L64.549 1 53.622 18.977z"></path><path d="M59.389 54.548l5.16-53.541-8.74 39.716-19.612 1.045 1.57 20.462-7.766 36.583 12.057-39.899z"></path><path d="M62.8 67.182l.549-10.453-15.979 3.755-.032 11.797-17.337 26.532 21.68-27.616zM65.711 62.394l14.841-4.731 1.509-12.532-15.899 2.095zM72.07 44.502l10.988-1.417 1.581-10.278-8.079-.373L64.549 1l8.43 30.967z"></path><path d="M87.413 31.294l1.256-9.506-9.544-2.694L64.549 1l14.483 22.437-.422 7z"></path></g></g><!----><g data-v-423bf9ae="" id="5c8eb558-4187-4f56-9220-40f0ec2a8123" fill="#35291E" transform="matrix(0.930644264278702,0,0,0.930644264278702,106.29486509782504,217.27561018963328)"><path d="M0.45 12.46C0.45 12.63 0.46 12.70 0.64 12.70C0.80 12.70 2.03 12.64 2.42 12.64C3.28 12.64 4.16 12.70 5.01 12.70C7.63 12.70 10.02 11.07 10.02 7.91C10.02 4.89 7.69 3.07 4.65 3.07C4.09 3.07 2.83 3.23 1.79 3.23C1.32 3.23 0.85 3.22 0.80 3.22C0.62 3.22 0.60 3.32 0.60 3.49C0.60 3.68 0.67 3.70 0.80 3.70L1.76 3.67C1.79 3.67 1.79 4.20 1.79 4.72C1.79 5.91 1.71 12.21 1.62 12.21L0.73 12.21C0.55 12.21 0.45 12.22 0.45 12.46ZM3.02 11.40C3.02 9.46 3.02 7.52 3.04 5.60C3.04 5.03 3.08 3.61 3.12 3.60C3.42 3.53 4.00 3.51 4.35 3.51C6.92 3.51 8.53 5.75 8.53 7.73C8.53 8.95 8.48 12.25 3.81 12.25C3.54 12.25 3.14 12.25 3.04 12.21C3.02 12.19 3.02 11.79 3.02 11.40ZM17.99 12.39C17.99 12.63 18.03 12.68 18.23 12.68C18.55 12.68 19.31 12.64 20.02 12.64C20.68 12.64 21.48 12.68 21.70 12.68C21.87 12.68 21.90 12.61 21.90 12.40C21.90 12.24 21.87 12.18 21.70 12.18L20.73 12.18C20.64 12.18 20.61 9.55 20.61 7.76L20.61 5.87C20.61 5.14 20.64 3.70 20.73 3.70L21.64 3.70C21.87 3.70 21.90 3.68 21.90 3.49C21.90 3.25 21.87 3.19 21.70 3.19C21.38 3.19 20.71 3.23 20.05 3.23C19.24 3.23 18.52 3.19 18.30 3.19C18.12 3.19 18.05 3.21 18.05 3.44C18.05 3.68 18.13 3.70 18.30 3.70L19.22 3.70C19.26 3.70 19.33 4.79 19.33 5.71L19.33 7.08C19.33 8.92 19.32 12.18 19.21 12.18L18.28 12.18C18.06 12.18 17.99 12.19 17.99 12.39ZM30.00 5.77C30.00 9.07 34.99 8.20 34.99 10.65C34.99 11.59 34.15 12.31 33.17 12.31C32.34 12.31 30.74 11.83 30.72 11.47L30.63 10.15C30.62 9.97 30.55 9.91 30.37 9.91L30.30 9.91C30.09 9.91 30.09 10.00 30.09 10.12C30.09 10.32 30.20 11.66 30.23 12.17C30.24 12.38 31.50 12.85 33.04 12.85C34.61 12.85 36.22 11.87 36.22 10.11C36.22 6.79 31.25 7.87 31.25 5.32C31.25 4.31 32.03 3.56 33.07 3.56C34.09 3.56 35.18 4.58 35.18 4.89C35.18 5.01 35.14 5.73 35.14 5.78C35.14 5.92 35.18 5.99 35.45 5.99C35.69 5.99 35.70 5.94 35.70 5.75C35.70 5.04 35.78 3.68 35.78 3.53C35.78 3.30 35.74 3.29 35.48 3.29C35.25 3.29 35.24 3.32 35.22 3.53C35.22 3.61 35.21 3.78 35.17 3.78C35.11 3.78 35.03 3.74 34.96 3.68C34.16 3.14 33.54 3.08 33.04 3.08C31.51 3.08 30.00 4.17 30.00 5.77ZM44.25 7.91C44.25 11.31 46.62 12.87 49.21 12.87C50.99 12.87 52.77 11.90 52.81 11.59C52.98 10.29 53.03 9.70 53.03 9.66C53.03 9.56 52.99 9.52 52.82 9.51C52.77 9.51 52.71 9.49 52.67 9.49C52.56 9.49 52.50 9.53 52.47 9.70L52.29 11.33C52.28 11.45 51.17 12.24 49.60 12.24C47.47 12.24 45.77 10.29 45.77 7.94C45.77 5.42 47.19 3.54 49.20 3.54C51.04 3.54 52.39 5.01 52.39 5.17C52.39 5.29 52.33 6.40 52.33 6.45C52.33 6.59 52.37 6.64 52.64 6.64C52.84 6.64 52.91 6.62 52.91 6.44C52.91 5.73 52.96 3.92 52.96 3.67C52.96 3.47 52.85 3.44 52.64 3.44C52.42 3.44 52.39 3.50 52.39 3.67L52.39 4.05C52.39 4.16 52.35 4.16 52.22 4.06C51.94 3.86 50.96 3.04 49.29 3.04C46.45 3.04 44.25 4.96 44.25 7.91ZM61.49 8.15C61.49 11.17 63.83 12.80 66.08 12.80C68.87 12.80 70.84 10.89 70.84 8.06C70.84 5.33 69.09 3.11 66.29 3.11C63.69 3.11 61.49 5.10 61.49 8.15ZM62.89 7.77C62.89 5.64 64.18 3.58 66.15 3.58C68.39 3.58 69.47 5.81 69.47 7.94C69.47 10.08 68.36 12.32 66.09 12.32C64.11 12.32 62.89 10.28 62.89 7.77ZM78.11 3.51C78.11 3.75 78.20 3.77 78.37 3.77L78.81 3.77C78.89 3.77 81.68 10.99 81.72 11.07C82.21 12.18 82.31 12.99 82.52 12.99C82.78 12.99 82.84 12.67 83.12 12.26C83.27 12.04 83.36 12.01 83.51 11.66L86.74 4.06C86.86 3.81 86.84 3.77 87.21 3.77C87.43 3.77 87.50 3.75 87.50 3.56C87.50 3.32 87.46 3.26 87.26 3.26C87.12 3.26 86.59 3.30 86.17 3.30C85.75 3.30 84.92 3.26 84.70 3.26C84.50 3.26 84.45 3.29 84.45 3.51C84.45 3.75 84.57 3.77 84.74 3.77L85.74 3.77C85.81 3.77 85.82 3.81 85.82 3.95C85.82 4.63 84.14 8.72 83.41 10.63C83.27 10.99 83.19 11.17 83.15 11.17C83.10 11.17 83.01 10.98 82.87 10.60C82.29 9.10 81.16 6.01 80.64 4.49C80.56 4.27 80.47 3.93 80.47 3.79L80.47 3.77L81.45 3.77C81.68 3.77 81.75 3.75 81.75 3.56C81.75 3.32 81.70 3.26 81.51 3.26C81.19 3.26 80.11 3.30 79.69 3.30C79.27 3.30 78.55 3.26 78.37 3.26C78.19 3.26 78.11 3.28 78.11 3.51ZM95.12 12.39C95.12 12.63 95.14 12.68 95.34 12.68C95.66 12.68 96.63 12.64 97.05 12.64C97.47 12.64 101.98 12.68 102.30 12.68C102.42 12.68 102.58 12.66 102.58 12.49C102.58 12.07 102.62 11.23 102.62 10.53C102.62 10.39 102.47 10.39 102.34 10.39C102.23 10.39 102.10 10.39 102.10 10.51C102.09 11.06 102.09 11.41 102.06 11.76C102.03 12.01 102.03 12.04 101.93 12.04C101.78 12.04 99.15 12.08 97.65 12.08C97.58 12.08 97.54 10.11 97.50 8.26C97.50 8.06 97.54 8.09 97.68 8.09L99.96 8.09C100.66 8.09 100.69 8.20 100.69 8.30L100.69 9.00C100.69 9.14 100.87 9.14 100.98 9.14C101.08 9.14 101.21 9.13 101.21 9.02C101.21 8.83 101.18 8.33 101.18 7.83C101.18 7.32 101.21 6.83 101.21 6.71C101.21 6.59 101.07 6.58 100.97 6.58C100.86 6.58 100.69 6.59 100.69 6.72L100.69 7.45C100.69 7.62 100.24 7.63 99.96 7.63L97.62 7.63C97.51 7.63 97.50 7.63 97.50 7.45C97.48 6.75 97.47 6.06 97.47 5.46C97.47 5.12 97.47 3.71 97.55 3.71C98.78 3.71 101.29 3.75 101.29 3.81C101.29 3.99 101.25 4.83 101.25 4.89C101.25 5.04 101.32 5.10 101.50 5.10C101.70 5.10 101.77 5.08 101.77 4.94C101.77 3.85 101.82 3.36 101.82 3.09C101.82 2.91 101.74 2.90 101.54 2.90C101.35 2.90 101.35 2.95 101.32 3.11C101.30 3.25 101.37 3.25 100.46 3.25C99.85 3.25 97.71 3.29 96.94 3.29C96.45 3.29 95.51 3.25 95.41 3.25C95.28 3.25 95.23 3.30 95.23 3.49C95.23 3.72 95.30 3.74 95.47 3.74L96.12 3.74C96.18 3.74 96.25 4.79 96.25 5.71C96.25 5.80 96.31 8.27 96.31 9.83L96.31 11.17C96.31 11.84 96.28 12.18 96.25 12.18L95.40 12.18C95.17 12.18 95.12 12.21 95.12 12.39ZM110.59 3.51C110.59 3.72 110.66 3.79 110.85 3.79L111.66 3.77C111.76 3.77 111.80 6.61 111.80 8.55L111.80 10.42C111.80 11.30 111.79 12.18 111.75 12.18L111.15 12.18C110.92 12.18 110.85 12.19 110.85 12.39C110.85 12.63 110.89 12.68 111.09 12.68C111.22 12.68 112.04 12.64 112.46 12.64C112.88 12.64 113.65 12.68 113.97 12.68C114.14 12.68 114.17 12.61 114.17 12.40C114.17 12.24 114.14 12.18 113.97 12.18L113.16 12.18C113.09 12.18 113.01 9.18 113.01 8.37C113.01 8.30 113.01 8.26 113.12 8.26C113.51 8.26 114.11 8.27 114.41 8.27C116.65 8.32 116.79 10.00 116.79 11.68L116.79 12.49C116.79 12.61 116.84 12.64 116.94 12.64C116.94 12.64 118.38 12.68 118.86 12.68C119.03 12.68 119.08 12.64 119.08 12.53C119.08 12.24 119.03 12.18 118.87 12.18L118.23 12.18C118.13 12.18 118.10 12.14 118.08 11.31C117.99 8.99 116.62 8.34 115.71 8.05C115.57 8.01 115.60 8.01 115.71 7.95C116.30 7.69 117.61 6.94 117.61 5.63C117.61 3.63 115.92 3.21 114.52 3.21C114.20 3.21 112.91 3.29 112.49 3.29C112.07 3.29 111.09 3.26 110.87 3.26C110.68 3.26 110.59 3.28 110.59 3.51ZM113.01 7.80L113.01 4.40C113.01 4.05 113.04 3.68 113.08 3.68C113.29 3.65 113.57 3.65 113.79 3.65C115.09 3.65 116.34 4.47 116.34 5.82C116.34 6.99 115.79 7.57 115.14 7.88C115.09 7.90 115.05 7.90 114.98 7.90C114.51 7.88 113.79 7.88 113.19 7.87C113.02 7.87 113.01 7.85 113.01 7.80ZM136.09 5.01C136.09 5.17 136.28 5.17 136.40 5.17C136.56 5.17 136.60 5.15 136.61 4.97L136.72 3.89C136.74 3.81 137.28 3.75 138.04 3.75L140.03 3.75C140.08 3.75 140.11 4.35 140.11 4.97C140.11 6.43 140.06 12.18 139.93 12.18L139.06 12.18C138.84 12.18 138.80 12.19 138.80 12.39C138.80 12.63 138.81 12.68 139.01 12.68C139.33 12.68 140.31 12.64 140.73 12.64C141.15 12.64 142.09 12.68 142.41 12.68C142.58 12.68 142.60 12.61 142.60 12.40C142.60 12.24 142.58 12.18 142.41 12.18L141.41 12.18C141.39 12.18 141.39 11.76 141.39 11.31C141.39 9.56 141.47 5.96 141.47 5.92C141.48 5.18 141.48 3.75 141.58 3.75L143.19 3.75C143.91 3.75 144.73 3.78 144.73 3.85C144.73 3.99 144.69 4.90 144.69 4.97C144.69 5.12 144.76 5.17 144.94 5.17C145.14 5.17 145.21 5.17 145.21 5.03C145.21 3.93 145.26 3.40 145.26 3.14C145.26 2.94 145.18 2.94 144.98 2.94C144.83 2.94 144.77 2.98 144.76 3.16C144.76 3.23 144.12 3.28 143.28 3.28L138.28 3.28C137.62 3.28 136.81 3.28 136.81 3.21L136.81 3.07C136.81 2.94 136.68 2.94 136.58 2.94C136.36 2.94 136.33 3.00 136.32 3.19C136.26 3.89 136.09 4.97 136.09 5.01ZM153.02 12.39C153.02 12.63 153.02 12.68 153.22 12.68C153.54 12.68 154.48 12.64 154.90 12.64C155.32 12.64 156.14 12.68 156.46 12.68C156.63 12.68 156.63 12.61 156.63 12.40C156.63 12.24 156.63 12.18 156.46 12.18L155.54 12.18C155.46 12.18 155.41 9.93 155.41 8.20C155.41 8.01 155.41 8.01 155.54 8.01L160.78 8.01C160.85 8.01 160.86 8.01 160.86 8.18L160.86 9.91C160.86 11.05 160.85 12.18 160.79 12.18L160.02 12.18C159.80 12.18 159.75 12.19 159.75 12.39C159.75 12.63 159.77 12.68 159.96 12.68C160.29 12.68 161.13 12.64 161.55 12.64C161.97 12.64 162.55 12.68 162.88 12.68C163.04 12.68 163.06 12.61 163.06 12.40C163.06 12.24 163.04 12.18 162.88 12.18L162.13 12.18C162.09 12.18 162.08 9.27 162.08 7.04C162.08 5.40 162.08 3.70 162.12 3.70L162.74 3.70C162.96 3.70 163.00 3.68 163.00 3.49C163.00 3.25 162.99 3.19 162.79 3.19C162.65 3.19 162.02 3.23 161.43 3.23C160.76 3.23 160.16 3.19 159.94 3.19C159.74 3.19 159.71 3.22 159.71 3.44C159.71 3.67 159.78 3.70 159.95 3.70L160.75 3.70C160.80 3.70 160.86 4.79 160.86 5.71L160.86 7.42C160.86 7.59 160.86 7.59 160.69 7.59L155.58 7.59C155.41 7.59 155.41 7.59 155.41 7.38C155.41 6.96 155.40 6.23 155.40 5.53C155.40 4.66 155.41 3.70 155.47 3.70L156.24 3.70C156.46 3.70 156.51 3.68 156.51 3.49C156.51 3.25 156.49 3.19 156.30 3.19C155.97 3.19 155.39 3.23 154.78 3.23C154.20 3.23 153.71 3.19 153.48 3.19C153.30 3.19 153.20 3.21 153.20 3.44C153.20 3.68 153.31 3.70 153.48 3.70L154.10 3.70C154.15 3.70 154.17 5.59 154.17 7.18L154.17 8.61C154.17 10.08 154.15 12.18 154.08 12.18L153.27 12.18C153.05 12.18 153.02 12.19 153.02 12.39ZM171.09 12.39C171.09 12.63 171.12 12.68 171.32 12.68C171.64 12.68 172.61 12.64 173.03 12.64C173.45 12.64 177.95 12.68 178.28 12.68C178.40 12.68 178.56 12.66 178.56 12.49C178.56 12.07 178.60 11.23 178.60 10.53C178.60 10.39 178.44 10.39 178.32 10.39C178.21 10.39 178.08 10.39 178.08 10.51C178.07 11.06 178.07 11.41 178.04 11.76C178.01 12.01 178.01 12.04 177.91 12.04C177.76 12.04 175.13 12.08 173.63 12.08C173.56 12.08 173.52 10.11 173.47 8.26C173.47 8.06 173.52 8.09 173.66 8.09L175.94 8.09C176.64 8.09 176.67 8.20 176.67 8.30L176.67 9.00C176.67 9.14 176.85 9.14 176.96 9.14C177.06 9.14 177.18 9.13 177.18 9.02C177.18 8.83 177.16 8.33 177.16 7.83C177.16 7.32 177.18 6.83 177.18 6.71C177.18 6.59 177.04 6.58 176.95 6.58C176.83 6.58 176.67 6.59 176.67 6.72L176.67 7.45C176.67 7.62 176.22 7.63 175.94 7.63L173.60 7.63C173.49 7.63 173.47 7.63 173.47 7.45C173.46 6.75 173.45 6.06 173.45 5.46C173.45 5.12 173.45 3.71 173.53 3.71C174.76 3.71 177.27 3.75 177.27 3.81C177.27 3.99 177.23 4.83 177.23 4.89C177.23 5.04 177.30 5.10 177.48 5.10C177.67 5.10 177.74 5.08 177.74 4.94C177.74 3.85 177.80 3.36 177.80 3.09C177.80 2.91 177.72 2.90 177.52 2.90C177.32 2.90 177.32 2.95 177.30 3.11C177.28 3.25 177.35 3.25 176.44 3.25C175.83 3.25 173.68 3.29 172.91 3.29C172.42 3.29 171.49 3.25 171.39 3.25C171.26 3.25 171.21 3.30 171.21 3.49C171.21 3.72 171.28 3.74 171.44 3.74L172.10 3.74C172.16 3.74 172.23 4.79 172.23 5.71C172.23 5.80 172.28 8.27 172.28 9.83L172.28 11.17C172.28 11.84 172.26 12.18 172.23 12.18L171.37 12.18C171.15 12.18 171.09 12.21 171.09 12.39ZM196.36 3.51C196.36 3.75 196.41 3.79 196.62 3.79L197.54 3.77C197.60 3.77 197.60 4.47 197.60 5.24L197.60 5.96C197.60 7.70 197.58 12.18 197.47 12.18L196.80 12.18C196.57 12.18 196.50 12.19 196.50 12.39C196.50 12.63 196.52 12.68 196.71 12.68C196.84 12.68 197.82 12.64 198.24 12.64C198.66 12.64 199.53 12.68 199.85 12.68C200.02 12.68 200.05 12.61 200.05 12.40C200.05 12.24 200.02 12.18 199.85 12.18L198.86 12.18C198.81 12.18 198.80 10.60 198.80 9.58L198.80 8.65C198.80 8.57 198.80 8.54 198.90 8.54C199.29 8.54 199.61 8.58 200.12 8.58C202.10 8.58 203.50 7.83 203.50 6.01C203.50 4.09 202.02 3.22 200.10 3.22C199.78 3.22 198.69 3.29 198.27 3.29C198.03 3.29 196.84 3.26 196.62 3.26C196.43 3.26 196.36 3.28 196.36 3.51ZM198.81 8.05L198.81 4.40C198.81 4.05 198.83 3.70 198.87 3.68C199.00 3.67 199.16 3.67 199.30 3.67C200.96 3.67 202.22 4.47 202.22 5.80C202.22 7.57 200.89 8.19 199.30 8.19C199.05 8.19 198.81 8.16 198.81 8.05ZM211.26 3.51C211.26 3.75 211.34 3.77 211.51 3.77L212.04 3.77C212.10 3.77 212.10 4.12 212.10 4.55C212.10 5.66 212.09 8.96 212.09 9.42C212.09 11.13 212.34 12.80 215.19 12.80C216.27 12.80 217.43 12.38 218.09 12.00C218.34 11.86 218.64 11.72 218.72 11.72C218.99 11.72 219.25 12.74 219.59 12.74C219.91 12.74 219.93 12.35 219.93 12.25C219.93 11.96 219.98 10.08 220.02 8.16C220.08 6.12 220.07 3.77 220.18 3.77L220.50 3.77C220.72 3.77 220.79 3.75 220.79 3.56C220.79 3.32 220.75 3.26 220.56 3.26C220.42 3.26 219.88 3.30 219.46 3.30C219.04 3.30 218.25 3.26 218.02 3.26C217.84 3.26 217.74 3.28 217.74 3.51C217.74 3.75 217.85 3.77 218.02 3.77L218.72 3.77C218.79 3.77 218.81 4.30 218.81 4.87L218.81 9.14C218.81 11.19 218.81 11.12 218.47 11.34C218.08 11.61 217.27 12.08 216.09 12.08C214.12 12.08 213.32 11.17 213.32 9.41C213.32 8.82 213.39 3.77 213.50 3.77L214.41 3.77C214.63 3.77 214.68 3.75 214.68 3.56C214.68 3.32 214.66 3.26 214.47 3.26C214.14 3.26 213.26 3.30 212.84 3.30C212.42 3.30 211.74 3.26 211.51 3.26C211.33 3.26 211.26 3.28 211.26 3.51ZM228.83 12.39C228.83 12.63 228.86 12.68 229.05 12.68C229.38 12.68 230.34 12.64 230.76 12.64C231.18 12.64 235.54 12.68 235.86 12.68C236.12 12.68 236.19 12.66 236.21 12.49C236.26 12.08 236.50 10.72 236.50 10.60C236.50 10.47 236.35 10.44 236.18 10.43C236.08 10.42 236.00 10.46 235.98 10.56L235.82 11.76C235.77 12.05 235.76 12.03 235.54 12.04C235.38 12.05 232.88 12.12 231.45 12.12C231.41 12.12 231.36 11.38 231.36 10.54L231.36 6.66C231.36 5.40 231.38 3.70 231.48 3.70L232.46 3.70C232.69 3.70 232.72 3.63 232.72 3.44C232.72 3.23 232.71 3.19 232.47 3.19C232.15 3.19 231.21 3.23 230.79 3.23C230.37 3.23 229.43 3.19 229.21 3.19C228.98 3.19 228.93 3.22 228.93 3.44C228.93 3.65 228.97 3.70 229.17 3.70L229.99 3.70C230.03 3.70 230.06 4.23 230.06 4.90L230.06 8.13C230.06 10.07 230.03 12.18 229.95 12.18L229.11 12.18C228.89 12.18 228.83 12.21 228.83 12.39ZM244.33 5.77C244.33 9.07 249.31 8.20 249.31 10.65C249.31 11.59 248.47 12.31 247.49 12.31C246.67 12.31 245.07 11.83 245.04 11.47L244.96 10.15C244.94 9.97 244.87 9.91 244.69 9.91L244.62 9.91C244.41 9.91 244.41 10.00 244.41 10.12C244.41 10.32 244.52 11.66 244.55 12.17C244.57 12.38 245.83 12.85 247.37 12.85C248.93 12.85 250.54 11.87 250.54 10.11C250.54 6.79 245.57 7.87 245.57 5.32C245.57 4.31 246.36 3.56 247.39 3.56C248.42 3.56 249.51 4.58 249.51 4.89C249.51 5.01 249.47 5.73 249.47 5.78C249.47 5.92 249.51 5.99 249.77 5.99C250.01 5.99 250.03 5.94 250.03 5.75C250.03 5.04 250.11 3.68 250.11 3.53C250.11 3.30 250.07 3.29 249.80 3.29C249.58 3.29 249.56 3.32 249.55 3.53C249.55 3.61 249.54 3.78 249.49 3.78C249.44 3.78 249.35 3.74 249.28 3.68C248.49 3.14 247.87 3.08 247.37 3.08C245.84 3.08 244.33 4.17 244.33 5.77ZM258.51 12.39C258.51 12.63 258.54 12.68 258.73 12.68C259.06 12.68 260.02 12.64 260.44 12.64C260.86 12.64 265.37 12.68 265.69 12.68C265.82 12.68 265.97 12.66 265.97 12.49C265.97 12.07 266.01 11.23 266.01 10.53C266.01 10.39 265.86 10.39 265.73 10.39C265.62 10.39 265.50 10.39 265.50 10.51C265.48 11.06 265.48 11.41 265.45 11.76C265.43 12.01 265.43 12.04 265.33 12.04C265.17 12.04 262.54 12.08 261.04 12.08C260.97 12.08 260.93 10.11 260.89 8.26C260.89 8.06 260.93 8.09 261.07 8.09L263.35 8.09C264.05 8.09 264.08 8.20 264.08 8.30L264.08 9.00C264.08 9.14 264.26 9.14 264.38 9.14C264.47 9.14 264.60 9.13 264.60 9.02C264.60 8.83 264.57 8.33 264.57 7.83C264.57 7.32 264.60 6.83 264.60 6.71C264.60 6.59 264.46 6.58 264.36 6.58C264.25 6.58 264.08 6.59 264.08 6.72L264.08 7.45C264.08 7.62 263.63 7.63 263.35 7.63L261.02 7.63C260.90 7.63 260.89 7.63 260.89 7.45C260.88 6.75 260.86 6.06 260.86 5.46C260.86 5.12 260.86 3.71 260.95 3.71C262.18 3.71 264.68 3.75 264.68 3.81C264.68 3.99 264.64 4.83 264.64 4.89C264.64 5.04 264.71 5.10 264.89 5.10C265.09 5.10 265.16 5.08 265.16 4.94C265.16 3.85 265.22 3.36 265.22 3.09C265.22 2.91 265.13 2.90 264.94 2.90C264.74 2.90 264.74 2.95 264.71 3.11C264.70 3.25 264.77 3.25 263.86 3.25C263.24 3.25 261.10 3.29 260.33 3.29C259.84 3.29 258.90 3.25 258.80 3.25C258.68 3.25 258.62 3.30 258.62 3.49C258.62 3.72 258.69 3.74 258.86 3.74L259.52 3.74C259.57 3.74 259.64 4.79 259.64 5.71C259.64 5.80 259.70 8.27 259.70 9.83L259.70 11.17C259.70 11.84 259.67 12.18 259.64 12.18L258.79 12.18C258.57 12.18 258.51 12.21 258.51 12.39ZM283.85 8.15C283.85 11.17 286.19 12.80 288.44 12.80C291.23 12.80 293.20 10.89 293.20 8.06C293.20 5.33 291.45 3.11 288.65 3.11C286.05 3.11 283.85 5.10 283.85 8.15ZM285.25 7.77C285.25 5.64 286.54 3.58 288.51 3.58C290.75 3.58 291.83 5.81 291.83 7.94C291.83 10.08 290.72 12.32 288.46 12.32C286.47 12.32 285.25 10.28 285.25 7.77ZM301.31 3.49C301.31 3.72 301.42 3.74 301.59 3.74L302.20 3.74C302.26 3.74 302.33 4.79 302.33 5.71C302.33 5.80 302.39 8.27 302.39 9.83L302.39 11.17C302.39 11.84 302.37 12.18 302.32 12.18L301.73 12.18C301.50 12.18 301.43 12.19 301.43 12.39C301.43 12.63 301.45 12.68 301.64 12.68C301.85 12.68 302.69 12.64 303.11 12.64C303.53 12.64 304.47 12.68 304.79 12.68C304.96 12.68 304.99 12.61 304.99 12.40C304.99 12.24 304.96 12.18 304.79 12.18L303.66 12.18C303.60 12.18 303.62 10.16 303.58 8.33C303.58 8.08 303.56 8.09 303.76 8.09L306.18 8.09C306.88 8.09 306.91 8.19 306.91 8.30L306.91 9.16C306.91 9.28 307.09 9.28 307.20 9.28C307.30 9.28 307.43 9.28 307.43 9.17C307.43 8.99 307.40 8.33 307.40 7.83C307.40 7.32 307.43 6.82 307.43 6.69C307.43 6.58 307.31 6.58 307.19 6.58C307.02 6.58 306.91 6.58 306.91 6.71L306.91 7.45C306.91 7.62 306.46 7.63 306.18 7.63L303.76 7.63C303.55 7.63 303.58 7.66 303.58 7.45C303.56 7.13 303.55 6.15 303.55 5.26C303.55 4.52 303.56 3.71 303.63 3.71C305.03 3.71 307.22 3.75 307.51 3.79C307.51 3.96 307.47 4.82 307.47 4.89C307.47 5.04 307.54 5.10 307.72 5.10C307.92 5.10 307.99 5.08 307.99 4.94C307.99 3.85 308.04 3.36 308.04 3.09C308.04 2.93 307.96 2.90 307.76 2.90C307.64 2.90 307.57 2.90 307.54 3.11C307.52 3.25 307.59 3.25 306.64 3.25C306.04 3.25 303.76 3.29 303.02 3.29C302.53 3.29 301.59 3.25 301.49 3.25C301.36 3.25 301.31 3.30 301.31 3.49ZM326.02 5.77C326.02 9.07 331.00 8.20 331.00 10.65C331.00 11.59 330.16 12.31 329.18 12.31C328.36 12.31 326.76 11.83 326.73 11.47L326.65 10.15C326.63 9.97 326.56 9.91 326.38 9.91L326.31 9.91C326.10 9.91 326.10 10.00 326.10 10.12C326.10 10.32 326.21 11.66 326.24 12.17C326.26 12.38 327.52 12.85 329.06 12.85C330.62 12.85 332.23 11.87 332.23 10.11C332.23 6.79 327.26 7.87 327.26 5.32C327.26 4.31 328.05 3.56 329.08 3.56C330.11 3.56 331.20 4.58 331.20 4.89C331.20 5.01 331.16 5.73 331.16 5.78C331.16 5.92 331.20 5.99 331.46 5.99C331.70 5.99 331.72 5.94 331.72 5.75C331.72 5.04 331.80 3.68 331.80 3.53C331.80 3.30 331.76 3.29 331.49 3.29C331.27 3.29 331.25 3.32 331.24 3.53C331.24 3.61 331.23 3.78 331.18 3.78C331.13 3.78 331.04 3.74 330.97 3.68C330.18 3.14 329.56 3.08 329.06 3.08C327.53 3.08 326.02 4.17 326.02 5.77ZM340.20 12.39C340.20 12.63 340.20 12.68 340.40 12.68C340.72 12.68 341.66 12.64 342.08 12.64C342.50 12.64 343.32 12.68 343.64 12.68C343.81 12.68 343.81 12.61 343.81 12.40C343.81 12.24 343.81 12.18 343.64 12.18L342.72 12.18C342.64 12.18 342.59 9.93 342.59 8.20C342.59 8.01 342.59 8.01 342.72 8.01L347.96 8.01C348.03 8.01 348.04 8.01 348.04 8.18L348.04 9.91C348.04 11.05 348.03 12.18 347.97 12.18L347.20 12.18C346.98 12.18 346.93 12.19 346.93 12.39C346.93 12.63 346.95 12.68 347.14 12.68C347.47 12.68 348.31 12.64 348.73 12.64C349.15 12.64 349.73 12.68 350.06 12.68C350.22 12.68 350.24 12.61 350.24 12.40C350.24 12.24 350.22 12.18 350.06 12.18L349.31 12.18C349.27 12.18 349.26 9.27 349.26 7.04C349.26 5.40 349.26 3.70 349.30 3.70L349.92 3.70C350.14 3.70 350.18 3.68 350.18 3.49C350.18 3.25 350.17 3.19 349.97 3.19C349.83 3.19 349.20 3.23 348.61 3.23C347.94 3.23 347.34 3.19 347.12 3.19C346.92 3.19 346.89 3.22 346.89 3.44C346.89 3.67 346.96 3.70 347.13 3.70L347.93 3.70C347.98 3.70 348.04 4.79 348.04 5.71L348.04 7.42C348.04 7.59 348.04 7.59 347.87 7.59L342.76 7.59C342.59 7.59 342.59 7.59 342.59 7.38C342.59 6.96 342.58 6.23 342.58 5.53C342.58 4.66 342.59 3.70 342.65 3.70L343.42 3.70C343.64 3.70 343.69 3.68 343.69 3.49C343.69 3.25 343.67 3.19 343.48 3.19C343.15 3.19 342.57 3.23 341.96 3.23C341.38 3.23 340.89 3.19 340.66 3.19C340.48 3.19 340.38 3.21 340.38 3.44C340.38 3.68 340.49 3.70 340.66 3.70L341.28 3.70C341.33 3.70 341.35 5.59 341.35 7.18L341.35 8.61C341.35 10.08 341.33 12.18 341.26 12.18L340.45 12.18C340.23 12.18 340.20 12.19 340.20 12.39ZM358.34 8.15C358.34 11.17 360.68 12.80 362.94 12.80C365.72 12.80 367.70 10.89 367.70 8.06C367.70 5.33 365.95 3.11 363.15 3.11C360.54 3.11 358.34 5.10 358.34 8.15ZM359.74 7.77C359.74 5.64 361.03 3.58 363.01 3.58C365.25 3.58 366.32 5.81 366.32 7.94C366.32 10.08 365.22 12.32 362.95 12.32C360.96 12.32 359.74 10.28 359.74 7.77ZM375.80 3.51C375.80 3.75 375.84 3.79 376.05 3.79L376.98 3.77C377.03 3.77 377.03 4.47 377.03 5.24L377.03 5.96C377.03 7.70 377.02 12.18 376.91 12.18L376.24 12.18C376.01 12.18 375.94 12.19 375.94 12.39C375.94 12.63 375.96 12.68 376.15 12.68C376.28 12.68 377.26 12.64 377.68 12.64C378.10 12.64 378.97 12.68 379.29 12.68C379.46 12.68 379.48 12.61 379.48 12.40C379.48 12.24 379.46 12.18 379.29 12.18L378.29 12.18C378.25 12.18 378.24 10.60 378.24 9.58L378.24 8.65C378.24 8.57 378.24 8.54 378.34 8.54C378.73 8.54 379.05 8.58 379.55 8.58C381.54 8.58 382.94 7.83 382.94 6.01C382.94 4.09 381.46 3.22 379.54 3.22C379.22 3.22 378.13 3.29 377.71 3.29C377.47 3.29 376.28 3.26 376.05 3.26C375.87 3.26 375.80 3.28 375.80 3.51ZM378.25 8.05L378.25 4.40C378.25 4.05 378.27 3.70 378.31 3.68C378.43 3.67 378.60 3.67 378.74 3.67C380.39 3.67 381.65 4.47 381.65 5.80C381.65 7.57 380.32 8.19 378.74 8.19C378.49 8.19 378.25 8.16 378.25 8.05ZM390.70 3.51C390.70 3.75 390.74 3.79 390.95 3.79L391.87 3.77C391.93 3.77 391.93 4.47 391.93 5.24L391.93 5.96C391.93 7.70 391.92 12.18 391.80 12.18L391.13 12.18C390.91 12.18 390.84 12.19 390.84 12.39C390.84 12.63 390.85 12.68 391.05 12.68C391.17 12.68 392.15 12.64 392.57 12.64C392.99 12.64 393.86 12.68 394.18 12.68C394.35 12.68 394.38 12.61 394.38 12.40C394.38 12.24 394.35 12.18 394.18 12.18L393.19 12.18C393.15 12.18 393.13 10.60 393.13 9.58L393.13 8.65C393.13 8.57 393.13 8.54 393.23 8.54C393.62 8.54 393.95 8.58 394.45 8.58C396.44 8.58 397.84 7.83 397.84 6.01C397.84 4.09 396.35 3.22 394.44 3.22C394.11 3.22 393.02 3.29 392.60 3.29C392.36 3.29 391.17 3.26 390.95 3.26C390.77 3.26 390.70 3.28 390.70 3.51ZM393.15 8.05L393.15 4.40C393.15 4.05 393.16 3.70 393.20 3.68C393.33 3.67 393.50 3.67 393.64 3.67C395.29 3.67 396.55 4.47 396.55 5.80C396.55 7.57 395.22 8.19 393.64 8.19C393.39 8.19 393.15 8.16 393.15 8.05ZM405.45 12.39C405.45 12.63 405.50 12.68 405.69 12.68C406.01 12.68 406.77 12.64 407.48 12.64C408.14 12.64 408.94 12.68 409.16 12.68C409.33 12.68 409.36 12.61 409.36 12.40C409.36 12.24 409.33 12.18 409.16 12.18L408.20 12.18C408.10 12.18 408.07 9.55 408.07 7.76L408.07 5.87C408.07 5.14 408.10 3.70 408.20 3.70L409.11 3.70C409.33 3.70 409.36 3.68 409.36 3.49C409.36 3.25 409.33 3.19 409.16 3.19C408.84 3.19 408.17 3.23 407.51 3.23C406.70 3.23 405.99 3.19 405.76 3.19C405.58 3.19 405.51 3.21 405.51 3.44C405.51 3.68 405.59 3.70 405.76 3.70L406.69 3.70C406.73 3.70 406.80 4.79 406.80 5.71L406.80 7.08C406.80 8.92 406.78 12.18 406.67 12.18L405.75 12.18C405.52 12.18 405.45 12.19 405.45 12.39ZM417.26 12.39C417.26 12.63 417.27 12.68 417.47 12.68C417.65 12.68 418.03 12.64 418.64 12.64C419.27 12.64 419.83 12.68 420.15 12.68C420.32 12.68 420.32 12.61 420.32 12.40C420.32 12.24 420.32 12.18 420.15 12.18L418.95 12.18C418.91 12.18 418.89 11.54 418.89 10.79C418.89 9.46 418.91 7.48 418.91 5.99C418.91 5.25 418.91 4.84 418.92 4.28C418.92 4.02 418.99 4.14 419.12 4.28L426.01 12.66C426.09 12.75 426.17 12.89 426.29 12.89C426.40 12.89 426.47 12.77 426.47 12.54C426.47 12.39 426.64 6.65 426.65 4.48C426.65 4.06 426.68 3.70 426.71 3.70L427.34 3.70C427.56 3.70 427.62 3.68 427.62 3.49C427.62 3.25 427.62 3.19 427.42 3.19C427.22 3.19 426.79 3.23 426.23 3.23C425.61 3.23 424.82 3.19 424.72 3.19C424.55 3.19 424.55 3.26 424.55 3.47C424.55 3.64 424.55 3.70 424.72 3.70L426.02 3.70C426.03 3.70 426.03 4.33 426.03 4.44C426.03 5.85 426.06 8.33 426.06 9.70L426.06 10.29C426.06 10.57 426.05 10.65 425.82 10.37L420.14 3.39C420.03 3.25 420.00 3.19 419.83 3.19C419.75 3.19 419.37 3.23 419.06 3.23C418.77 3.23 417.69 3.19 417.49 3.19C417.33 3.19 417.30 3.26 417.30 3.47C417.30 3.64 417.33 3.70 417.49 3.70L418.40 3.70C418.40 4.17 418.36 8.53 418.29 10.79C418.26 11.69 418.28 12.18 418.17 12.18L417.52 12.18C417.30 12.18 417.26 12.19 417.26 12.39ZM435.72 7.91C435.72 11.40 438.09 12.89 440.68 12.89C442.57 12.89 444.57 11.89 444.57 11.58C444.57 11.12 444.58 10.68 444.58 10.33C444.58 9.81 444.60 9.56 444.72 9.56L445.16 9.56C445.30 9.56 445.31 9.39 445.31 9.30C445.31 9.18 445.30 9.06 445.16 9.06C444.93 9.06 444.57 9.10 443.90 9.10C443.45 9.10 442.71 9.07 442.02 9.06C441.88 9.06 441.88 9.24 441.88 9.35C441.88 9.45 441.91 9.56 442.04 9.56L443.25 9.56C443.30 9.56 443.35 9.87 443.35 10.33C443.35 10.82 443.34 11.41 443.31 11.65C443.30 11.76 442.65 12.39 441.07 12.39C438.83 12.39 437.23 10.29 437.23 7.94C437.23 5.42 438.79 3.54 440.79 3.54C442.68 3.54 443.86 4.87 443.86 5.03C443.86 5.15 443.80 6.12 443.80 6.17C443.80 6.31 443.84 6.36 444.11 6.36C444.30 6.36 444.37 6.33 444.37 6.15C444.37 5.43 444.42 3.75 444.42 3.56C444.42 3.36 444.32 3.33 444.11 3.33C443.88 3.33 443.86 3.39 443.86 3.56L443.86 3.91C443.86 3.99 443.81 4.02 443.69 3.92C443.41 3.72 442.41 3.08 440.85 3.08C438.00 3.08 435.72 4.79 435.72 7.91ZM463.01 12.39C463.01 12.63 463.01 12.68 463.20 12.68C463.37 12.68 463.69 12.64 464.27 12.64C464.88 12.64 465.43 12.68 465.58 12.68C465.75 12.68 465.75 12.61 465.75 12.40C465.75 12.24 465.75 12.18 465.58 12.18L464.51 12.18C464.51 12.18 464.49 12.18 464.49 12.17C464.51 11.87 465.28 9.90 465.63 9.02C465.70 8.83 465.71 8.79 465.92 8.79L468.75 8.79C468.89 8.79 468.89 8.81 468.96 9.03C469.22 9.77 469.94 11.89 469.94 12.17C469.94 12.18 469.92 12.18 469.92 12.18L469.15 12.18C468.93 12.18 468.92 12.19 468.92 12.39C468.92 12.63 468.93 12.68 469.10 12.68C469.42 12.68 470.29 12.64 470.71 12.64C471.13 12.64 471.80 12.68 472.01 12.68C472.15 12.68 472.16 12.61 472.16 12.40C472.16 12.24 472.15 12.18 472.01 12.18L471.52 12.18C471.42 12.18 470.40 9.34 469.84 7.78L468.16 3.07C468.15 3.00 468.08 2.94 467.99 2.94C467.87 2.94 467.77 3.16 467.68 3.35C467.53 3.71 467.29 3.84 467.18 4.13L465.70 7.57C465.51 8.01 463.81 12.18 463.68 12.18L463.26 12.18C463.04 12.18 463.01 12.19 463.01 12.39ZM465.91 8.33C465.91 8.30 465.93 8.23 465.98 8.13L467.35 4.77C467.39 4.66 467.42 4.61 467.45 4.61C467.46 4.61 467.47 4.63 467.52 4.77L468.68 8.18C468.71 8.25 468.72 8.29 468.72 8.32C468.72 8.36 468.69 8.37 468.59 8.37L466.09 8.37C465.91 8.37 465.91 8.34 465.91 8.33ZM478.25 5.01C478.25 5.17 478.44 5.17 478.56 5.17C478.72 5.17 478.76 5.15 478.77 4.97L478.88 3.89C478.90 3.81 479.44 3.75 480.20 3.75L482.19 3.75C482.24 3.75 482.27 4.35 482.27 4.97C482.27 6.43 482.22 12.18 482.09 12.18L481.22 12.18C481.00 12.18 480.96 12.19 480.96 12.39C480.96 12.63 480.97 12.68 481.17 12.68C481.49 12.68 482.47 12.64 482.89 12.64C483.31 12.64 484.25 12.68 484.57 12.68C484.74 12.68 484.76 12.61 484.76 12.40C484.76 12.24 484.74 12.18 484.57 12.18L483.57 12.18C483.55 12.18 483.55 11.76 483.55 11.31C483.55 9.56 483.63 5.96 483.63 5.92C483.64 5.18 483.64 3.75 483.74 3.75L485.35 3.75C486.07 3.75 486.89 3.78 486.89 3.85C486.89 3.99 486.85 4.90 486.85 4.97C486.85 5.12 486.92 5.17 487.10 5.17C487.30 5.17 487.37 5.17 487.37 5.03C487.37 3.93 487.42 3.40 487.42 3.14C487.42 2.94 487.34 2.94 487.14 2.94C486.99 2.94 486.93 2.98 486.92 3.16C486.92 3.23 486.28 3.28 485.44 3.28L480.44 3.28C479.78 3.28 478.97 3.28 478.97 3.21L478.97 3.07C478.97 2.94 478.84 2.94 478.74 2.94C478.52 2.94 478.49 3.00 478.48 3.19C478.42 3.89 478.25 4.97 478.25 5.01ZM504.71 5.01C504.71 5.17 504.90 5.17 505.02 5.17C505.18 5.17 505.22 5.15 505.23 4.97L505.34 3.89C505.36 3.81 505.90 3.75 506.66 3.75L508.65 3.75C508.70 3.75 508.73 4.35 508.73 4.97C508.73 6.43 508.68 12.18 508.55 12.18L507.68 12.18C507.46 12.18 507.42 12.19 507.42 12.39C507.42 12.63 507.43 12.68 507.63 12.68C507.95 12.68 508.93 12.64 509.35 12.64C509.77 12.64 510.71 12.68 511.03 12.68C511.20 12.68 511.22 12.61 511.22 12.40C511.22 12.24 511.20 12.18 511.03 12.18L510.03 12.18C510.01 12.18 510.01 11.76 510.01 11.31C510.01 9.56 510.09 5.96 510.09 5.92C510.10 5.18 510.10 3.75 510.20 3.75L511.81 3.75C512.53 3.75 513.35 3.78 513.35 3.85C513.35 3.99 513.31 4.90 513.31 4.97C513.31 5.12 513.38 5.17 513.56 5.17C513.76 5.17 513.83 5.17 513.83 5.03C513.83 3.93 513.88 3.40 513.88 3.14C513.88 2.94 513.80 2.94 513.60 2.94C513.45 2.94 513.39 2.98 513.38 3.16C513.38 3.23 512.74 3.28 511.90 3.28L506.90 3.28C506.24 3.28 505.43 3.28 505.43 3.21L505.43 3.07C505.43 2.94 505.30 2.94 505.20 2.94C504.98 2.94 504.95 3.00 504.94 3.19C504.88 3.89 504.71 4.97 504.71 5.01ZM521.64 3.51C521.64 3.72 521.71 3.79 521.91 3.79L522.72 3.77C522.82 3.77 522.86 6.61 522.86 8.55L522.86 10.42C522.86 11.30 522.84 12.18 522.80 12.18L522.20 12.18C521.98 12.18 521.91 12.19 521.91 12.39C521.91 12.63 521.95 12.68 522.14 12.68C522.27 12.68 523.10 12.64 523.52 12.64C523.94 12.64 524.71 12.68 525.03 12.68C525.20 12.68 525.22 12.61 525.22 12.40C525.22 12.24 525.20 12.18 525.03 12.18L524.22 12.18C524.15 12.18 524.06 9.18 524.06 8.37C524.06 8.30 524.06 8.26 524.17 8.26C524.57 8.26 525.17 8.27 525.46 8.27C527.70 8.32 527.84 10.00 527.84 11.68L527.84 12.49C527.84 12.61 527.90 12.64 528.00 12.64C528.00 12.64 529.44 12.68 529.91 12.68C530.08 12.68 530.14 12.64 530.14 12.53C530.14 12.24 530.08 12.18 529.93 12.18L529.28 12.18C529.19 12.18 529.16 12.14 529.13 11.31C529.05 8.99 527.67 8.34 526.76 8.05C526.62 8.01 526.65 8.01 526.76 7.95C527.35 7.69 528.67 6.94 528.67 5.63C528.67 3.63 526.97 3.21 525.57 3.21C525.25 3.21 523.96 3.29 523.54 3.29C523.12 3.29 522.14 3.26 521.92 3.26C521.74 3.26 521.64 3.28 521.64 3.51ZM524.06 7.80L524.06 4.40C524.06 4.05 524.09 3.68 524.13 3.68C524.34 3.65 524.62 3.65 524.85 3.65C526.15 3.65 527.39 4.47 527.39 5.82C527.39 6.99 526.85 7.57 526.19 7.88C526.15 7.90 526.11 7.90 526.04 7.90C525.56 7.88 524.85 7.88 524.24 7.87C524.08 7.87 524.06 7.85 524.06 7.80ZM537.61 12.39C537.61 12.63 537.64 12.68 537.84 12.68C538.16 12.68 539.13 12.64 539.55 12.64C539.97 12.64 544.47 12.68 544.80 12.68C544.92 12.68 545.08 12.66 545.08 12.49C545.08 12.07 545.12 11.23 545.12 10.53C545.12 10.39 544.96 10.39 544.84 10.39C544.73 10.39 544.60 10.39 544.60 10.51C544.59 11.06 544.59 11.41 544.56 11.76C544.53 12.01 544.53 12.04 544.43 12.04C544.28 12.04 541.65 12.08 540.15 12.08C540.08 12.08 540.04 10.11 539.99 8.26C539.99 8.06 540.04 8.09 540.18 8.09L542.46 8.09C543.16 8.09 543.19 8.20 543.19 8.30L543.19 9.00C543.19 9.14 543.37 9.14 543.48 9.14C543.58 9.14 543.70 9.13 543.70 9.02C543.70 8.83 543.68 8.33 543.68 7.83C543.68 7.32 543.70 6.83 543.70 6.71C543.70 6.59 543.56 6.58 543.47 6.58C543.35 6.58 543.19 6.59 543.19 6.72L543.19 7.45C543.19 7.62 542.74 7.63 542.46 7.63L540.12 7.63C540.01 7.63 539.99 7.63 539.99 7.45C539.98 6.75 539.97 6.06 539.97 5.46C539.97 5.12 539.97 3.71 540.05 3.71C541.28 3.71 543.79 3.75 543.79 3.81C543.79 3.99 543.75 4.83 543.75 4.89C543.75 5.04 543.82 5.10 544.00 5.10C544.19 5.10 544.26 5.08 544.26 4.94C544.26 3.85 544.32 3.36 544.32 3.09C544.32 2.91 544.24 2.90 544.04 2.90C543.84 2.90 543.84 2.95 543.82 3.11C543.80 3.25 543.87 3.25 542.96 3.25C542.35 3.25 540.20 3.29 539.43 3.29C538.94 3.29 538.01 3.25 537.91 3.25C537.78 3.25 537.73 3.30 537.73 3.49C537.73 3.72 537.80 3.74 537.96 3.74L538.62 3.74C538.68 3.74 538.75 4.79 538.75 5.71C538.75 5.80 538.80 8.27 538.80 9.83L538.80 11.17C538.80 11.84 538.78 12.18 538.75 12.18L537.89 12.18C537.67 12.18 537.61 12.21 537.61 12.39ZM553.08 12.39C553.08 12.63 553.10 12.68 553.29 12.68C553.48 12.68 553.85 12.64 554.47 12.64C555.10 12.64 555.66 12.68 555.98 12.68C556.15 12.68 556.15 12.61 556.15 12.40C556.15 12.24 556.15 12.18 555.98 12.18L554.78 12.18C554.74 12.18 554.72 11.54 554.72 10.79C554.72 9.46 554.74 7.48 554.74 5.99C554.74 5.25 554.74 4.84 554.75 4.28C554.75 4.02 554.82 4.14 554.95 4.28L561.83 12.66C561.92 12.75 562.00 12.89 562.11 12.89C562.23 12.89 562.30 12.77 562.30 12.54C562.30 12.39 562.46 6.65 562.48 4.48C562.48 4.06 562.51 3.70 562.53 3.70L563.16 3.70C563.39 3.70 563.44 3.68 563.44 3.49C563.44 3.25 563.44 3.19 563.25 3.19C563.05 3.19 562.62 3.23 562.06 3.23C561.44 3.23 560.64 3.19 560.55 3.19C560.38 3.19 560.38 3.26 560.38 3.47C560.38 3.64 560.38 3.70 560.55 3.70L561.85 3.70C561.86 3.70 561.86 4.33 561.86 4.44C561.86 5.85 561.89 8.33 561.89 9.70L561.89 10.29C561.89 10.57 561.88 10.65 561.65 10.37L555.97 3.39C555.86 3.25 555.83 3.19 555.66 3.19C555.58 3.19 555.20 3.23 554.89 3.23C554.60 3.23 553.52 3.19 553.32 3.19C553.15 3.19 553.13 3.26 553.13 3.47C553.13 3.64 553.15 3.70 553.32 3.70L554.23 3.70C554.23 4.17 554.19 8.53 554.12 10.79C554.09 11.69 554.11 12.18 553.99 12.18L553.35 12.18C553.13 12.18 553.08 12.19 553.08 12.39ZM571.41 12.46C571.41 12.63 571.42 12.70 571.61 12.70C571.76 12.70 572.99 12.64 573.38 12.64C574.24 12.64 575.12 12.70 575.97 12.70C578.59 12.70 580.99 11.07 580.99 7.91C580.99 4.89 578.65 3.07 575.61 3.07C575.05 3.07 573.79 3.23 572.75 3.23C572.28 3.23 571.82 3.22 571.76 3.22C571.58 3.22 571.56 3.32 571.56 3.49C571.56 3.68 571.63 3.70 571.76 3.70L572.73 3.67C572.75 3.67 572.75 4.20 572.75 4.72C572.75 5.91 572.67 12.21 572.59 12.21L571.69 12.21C571.51 12.21 571.41 12.22 571.41 12.46ZM573.99 11.40C573.99 9.46 573.99 7.52 574.00 5.60C574.00 5.03 574.04 3.61 574.08 3.60C574.38 3.53 574.97 3.51 575.32 3.51C577.88 3.51 579.49 5.75 579.49 7.73C579.49 8.95 579.45 12.25 574.77 12.25C574.50 12.25 574.10 12.25 574.00 12.21C573.99 12.19 573.99 11.79 573.99 11.40ZM589.30 5.77C589.30 9.07 594.29 8.20 594.29 10.65C594.29 11.59 593.45 12.31 592.47 12.31C591.64 12.31 590.04 11.83 590.02 11.47L589.93 10.15C589.92 9.97 589.85 9.91 589.67 9.91L589.60 9.91C589.39 9.91 589.39 10.00 589.39 10.12C589.39 10.32 589.50 11.66 589.53 12.17C589.54 12.38 590.80 12.85 592.34 12.85C593.91 12.85 595.52 11.87 595.52 10.11C595.52 6.79 590.55 7.87 590.55 5.32C590.55 4.31 591.33 3.56 592.37 3.56C593.39 3.56 594.48 4.58 594.48 4.89C594.48 5.01 594.44 5.73 594.44 5.78C594.44 5.92 594.48 5.99 594.75 5.99C594.99 5.99 595.00 5.94 595.00 5.75C595.00 5.04 595.08 3.68 595.08 3.53C595.08 3.30 595.04 3.29 594.78 3.29C594.55 3.29 594.54 3.32 594.52 3.53C594.52 3.61 594.51 3.78 594.47 3.78C594.41 3.78 594.33 3.74 594.26 3.68C593.46 3.14 592.84 3.08 592.34 3.08C590.81 3.08 589.30 4.17 589.30 5.77ZM603.48 3.51C603.48 3.75 603.53 3.79 603.74 3.79L604.66 3.77C604.72 3.77 604.72 4.47 604.72 5.24L604.72 5.96C604.72 7.70 604.70 12.18 604.59 12.18L603.92 12.18C603.69 12.18 603.62 12.19 603.62 12.39C603.62 12.63 603.64 12.68 603.83 12.68C603.96 12.68 604.94 12.64 605.36 12.64C605.78 12.64 606.65 12.68 606.97 12.68C607.14 12.68 607.17 12.61 607.17 12.40C607.17 12.24 607.14 12.18 606.97 12.18L605.98 12.18C605.93 12.18 605.92 10.60 605.92 9.58L605.92 8.65C605.92 8.57 605.92 8.54 606.02 8.54C606.41 8.54 606.73 8.58 607.24 8.58C609.22 8.58 610.62 7.83 610.62 6.01C610.62 4.09 609.14 3.22 607.22 3.22C606.90 3.22 605.81 3.29 605.39 3.29C605.15 3.29 603.96 3.26 603.74 3.26C603.55 3.26 603.48 3.28 603.48 3.51ZM605.93 8.05L605.93 4.40C605.93 4.05 605.95 3.70 605.99 3.68C606.12 3.67 606.28 3.67 606.42 3.67C608.08 3.67 609.34 4.47 609.34 5.80C609.34 7.57 608.01 8.19 606.42 8.19C606.17 8.19 605.93 8.16 605.93 8.05ZM618.38 12.39C618.38 12.63 618.38 12.68 618.58 12.68C618.90 12.68 619.84 12.64 620.26 12.64C620.68 12.64 621.50 12.68 621.82 12.68C621.99 12.68 621.99 12.61 621.99 12.40C621.99 12.24 621.99 12.18 621.82 12.18L620.90 12.18C620.82 12.18 620.77 9.93 620.77 8.20C620.77 8.01 620.77 8.01 620.90 8.01L626.14 8.01C626.21 8.01 626.22 8.01 626.22 8.18L626.22 9.91C626.22 11.05 626.21 12.18 626.15 12.18L625.38 12.18C625.16 12.18 625.11 12.19 625.11 12.39C625.11 12.63 625.13 12.68 625.32 12.68C625.65 12.68 626.49 12.64 626.91 12.64C627.33 12.64 627.91 12.68 628.24 12.68C628.40 12.68 628.42 12.61 628.42 12.40C628.42 12.24 628.40 12.18 628.24 12.18L627.49 12.18C627.45 12.18 627.44 9.27 627.44 7.04C627.44 5.40 627.44 3.70 627.48 3.70L628.10 3.70C628.32 3.70 628.36 3.68 628.36 3.49C628.36 3.25 628.35 3.19 628.15 3.19C628.01 3.19 627.38 3.23 626.79 3.23C626.12 3.23 625.52 3.19 625.30 3.19C625.10 3.19 625.07 3.22 625.07 3.44C625.07 3.67 625.14 3.70 625.31 3.70L626.11 3.70C626.16 3.70 626.22 4.79 626.22 5.71L626.22 7.42C626.22 7.59 626.22 7.59 626.05 7.59L620.94 7.59C620.77 7.59 620.77 7.59 620.77 7.38C620.77 6.96 620.76 6.23 620.76 5.53C620.76 4.66 620.77 3.70 620.83 3.70L621.60 3.70C621.82 3.70 621.87 3.68 621.87 3.49C621.87 3.25 621.85 3.19 621.66 3.19C621.33 3.19 620.75 3.23 620.14 3.23C619.56 3.23 619.07 3.19 618.84 3.19C618.66 3.19 618.56 3.21 618.56 3.44C618.56 3.68 618.67 3.70 618.84 3.70L619.46 3.70C619.51 3.70 619.53 5.59 619.53 7.18L619.53 8.61C619.53 10.08 619.51 12.18 619.44 12.18L618.63 12.18C618.41 12.18 618.38 12.19 618.38 12.39ZM636.45 12.39C636.45 12.63 636.48 12.68 636.68 12.68C637.00 12.68 637.97 12.64 638.39 12.64C638.81 12.64 643.31 12.68 643.64 12.68C643.76 12.68 643.92 12.66 643.92 12.49C643.92 12.07 643.96 11.23 643.96 10.53C643.96 10.39 643.80 10.39 643.68 10.39C643.57 10.39 643.44 10.39 643.44 10.51C643.43 11.06 643.43 11.41 643.40 11.76C643.37 12.01 643.37 12.04 643.27 12.04C643.12 12.04 640.49 12.08 638.99 12.08C638.92 12.08 638.88 10.11 638.83 8.26C638.83 8.06 638.88 8.09 639.02 8.09L641.30 8.09C642.00 8.09 642.03 8.20 642.03 8.30L642.03 9.00C642.03 9.14 642.21 9.14 642.32 9.14C642.42 9.14 642.54 9.13 642.54 9.02C642.54 8.83 642.52 8.33 642.52 7.83C642.52 7.32 642.54 6.83 642.54 6.71C642.54 6.59 642.40 6.58 642.31 6.58C642.19 6.58 642.03 6.59 642.03 6.72L642.03 7.45C642.03 7.62 641.58 7.63 641.30 7.63L638.96 7.63C638.85 7.63 638.83 7.63 638.83 7.45C638.82 6.75 638.81 6.06 638.81 5.46C638.81 5.12 638.81 3.71 638.89 3.71C640.12 3.71 642.63 3.75 642.63 3.81C642.63 3.99 642.59 4.83 642.59 4.89C642.59 5.04 642.66 5.10 642.84 5.10C643.03 5.10 643.10 5.08 643.10 4.94C643.10 3.85 643.16 3.36 643.16 3.09C643.16 2.91 643.08 2.90 642.88 2.90C642.68 2.90 642.68 2.95 642.66 3.11C642.64 3.25 642.71 3.25 641.80 3.25C641.19 3.25 639.04 3.29 638.27 3.29C637.78 3.29 636.85 3.25 636.75 3.25C636.62 3.25 636.57 3.30 636.57 3.49C636.57 3.72 636.64 3.74 636.80 3.74L637.46 3.74C637.52 3.74 637.59 4.79 637.59 5.71C637.59 5.80 637.64 8.27 637.64 9.83L637.64 11.17C637.64 11.84 637.62 12.18 637.59 12.18L636.73 12.18C636.51 12.18 636.45 12.21 636.45 12.39ZM651.92 3.51C651.92 3.72 651.99 3.79 652.19 3.79L653.00 3.77C653.10 3.77 653.14 6.61 653.14 8.55L653.14 10.42C653.14 11.30 653.13 12.18 653.09 12.18L652.48 12.18C652.26 12.18 652.19 12.19 652.19 12.39C652.19 12.63 652.23 12.68 652.43 12.68C652.55 12.68 653.38 12.64 653.80 12.64C654.22 12.64 654.99 12.68 655.31 12.68C655.48 12.68 655.51 12.61 655.51 12.40C655.51 12.24 655.48 12.18 655.31 12.18L654.50 12.18C654.43 12.18 654.35 9.18 654.35 8.37C654.35 8.30 654.35 8.26 654.46 8.26C654.85 8.26 655.45 8.27 655.75 8.27C657.99 8.32 658.13 10.00 658.13 11.68L658.13 12.49C658.13 12.61 658.18 12.64 658.28 12.64C658.28 12.64 659.72 12.68 660.20 12.68C660.37 12.68 660.42 12.64 660.42 12.53C660.42 12.24 660.37 12.18 660.21 12.18L659.57 12.18C659.47 12.18 659.44 12.14 659.41 11.31C659.33 8.99 657.96 8.34 657.05 8.05C656.91 8.01 656.94 8.01 657.05 7.95C657.64 7.69 658.95 6.94 658.95 5.63C658.95 3.63 657.26 3.21 655.86 3.21C655.54 3.21 654.25 3.29 653.83 3.29C653.41 3.29 652.43 3.26 652.20 3.26C652.02 3.26 651.92 3.28 651.92 3.51ZM654.35 7.80L654.35 4.40C654.35 4.05 654.37 3.68 654.42 3.68C654.63 3.65 654.91 3.65 655.13 3.65C656.43 3.65 657.68 4.47 657.68 5.82C657.68 6.99 657.13 7.57 656.47 7.88C656.43 7.90 656.39 7.90 656.32 7.90C655.84 7.88 655.13 7.88 654.53 7.87C654.36 7.87 654.35 7.85 654.35 7.80ZM667.90 12.39C667.90 12.63 667.93 12.68 668.12 12.68C668.44 12.68 669.41 12.64 669.83 12.64C670.25 12.64 674.76 12.68 675.08 12.68C675.21 12.68 675.36 12.66 675.36 12.49C675.36 12.07 675.40 11.23 675.40 10.53C675.40 10.39 675.25 10.39 675.12 10.39C675.01 10.39 674.88 10.39 674.88 10.51C674.87 11.06 674.87 11.41 674.84 11.76C674.81 12.01 674.81 12.04 674.72 12.04C674.56 12.04 671.93 12.08 670.43 12.08C670.36 12.08 670.32 10.11 670.28 8.26C670.28 8.06 670.32 8.09 670.46 8.09L672.74 8.09C673.44 8.09 673.47 8.20 673.47 8.30L673.47 9.00C673.47 9.14 673.65 9.14 673.76 9.14C673.86 9.14 673.99 9.13 673.99 9.02C673.99 8.83 673.96 8.33 673.96 7.83C673.96 7.32 673.99 6.83 673.99 6.71C673.99 6.59 673.85 6.58 673.75 6.58C673.64 6.58 673.47 6.59 673.47 6.72L673.47 7.45C673.47 7.62 673.02 7.63 672.74 7.63L670.40 7.63C670.29 7.63 670.28 7.63 670.28 7.45C670.26 6.75 670.25 6.06 670.25 5.46C670.25 5.12 670.25 3.71 670.33 3.71C671.57 3.71 674.07 3.75 674.07 3.81C674.07 3.99 674.03 4.83 674.03 4.89C674.03 5.04 674.10 5.10 674.28 5.10C674.48 5.10 674.55 5.08 674.55 4.94C674.55 3.85 674.60 3.36 674.60 3.09C674.60 2.91 674.52 2.90 674.32 2.90C674.13 2.90 674.13 2.95 674.10 3.11C674.09 3.25 674.16 3.25 673.25 3.25C672.63 3.25 670.49 3.29 669.72 3.29C669.23 3.29 668.29 3.25 668.19 3.25C668.07 3.25 668.01 3.30 668.01 3.49C668.01 3.72 668.08 3.74 668.25 3.74L668.91 3.74C668.96 3.74 669.03 4.79 669.03 5.71C669.03 5.80 669.09 8.27 669.09 9.83L669.09 11.17C669.09 11.84 669.06 12.18 669.03 12.18L668.18 12.18C667.95 12.18 667.90 12.21 667.90 12.39ZM683.93 12.07C683.93 12.31 684.39 12.75 684.80 12.75C684.98 12.75 685.43 12.35 685.43 11.90C685.43 11.51 684.85 11.20 684.59 11.20C684.32 11.20 683.93 11.76 683.93 12.07ZM684.17 3.53C684.17 4.28 684.35 6.93 684.43 10.05C684.43 10.19 684.56 10.23 684.66 10.23C684.75 10.23 684.89 10.19 684.89 10.05C685.06 6.36 685.26 3.64 685.26 3.47C685.26 3.19 685.10 3.14 684.78 3.14C684.42 3.14 684.17 3.21 684.17 3.53Z"></path></g></svg>