<svg data-v-423bf9ae="" xmlns="http://www.w3.org/2000/svg" viewBox="0 0 849.963586625306 60" class="font"><!----><!----><!----><g data-v-423bf9ae="" id="641fe981-3f25-4024-8df8-dd80394c8d95" fill="white" transform="matrix(4.10958893372029,0,0,4.10958893372029,-1.132285206978679,-2.7534237601090865)"><path d="M10.23 9.00L10.49 9.06Q10.14 9.91 9.20 11.03L9.20 11.03Q8.13 12.32 7.38 12.50L7.38 12.50Q6.37 11.65 4.82 11.65L4.82 11.65Q3.93 11.65 3.50 11.77L3.50 11.77Q3.23 11.76 2.76 11.90L2.76 11.90Q2.34 12.26 1.93 12.63L1.93 12.63Q1.29 13.19 0.92 13.20L0.92 13.20Q0.94 12.91 1.56 12.10Q2.18 11.28 2.18 11.23L2.18 11.23L2.18 10.21Q2.18 10.16 2.24 10.04Q2.30 9.91 2.30 9.87L2.30 9.87L2.30 4.49Q2.04 4.27 1.79 4.05L1.79 4.05Q1.36 3.68 1.27 3.68L1.27 3.68Q1.23 3.68 0.97 3.86L0.97 3.86Q0.62 4.10 0.53 4.14L0.53 4.14L0.28 4.09Q0.20 3.70 1.55 2.44Q2.90 1.18 3.32 1.18L3.32 1.18Q3.40 1.18 3.93 1.61L3.93 1.61Q4.42 2.00 4.62 2.20L4.62 2.20L4.65 7.73Q4.65 7.77 4.58 8.06Q4.51 8.36 4.51 8.41L4.51 8.41L4.51 9.35Q4.51 9.38 4.46 9.46Q4.41 9.55 4.40 9.62L4.40 9.62Q5.87 9.37 6.03 9.34Q6.20 9.32 6.87 9.32L6.87 9.32Q7.85 9.32 8.58 9.54Q9.30 9.76 9.17 9.76L9.17 9.76Q9.21 9.76 9.60 9.46L9.60 9.46Q10.07 9.11 10.23 9.00L10.23 9.00ZM18.07 9.81L18.07 9.81Q18.07 10.32 16.74 11.31L16.74 11.31Q15.60 12.17 15.25 12.26L15.25 12.26Q14.71 12.42 14.36 12.42L14.36 12.42Q14 12.42 13.15 12.16Q12.31 11.90 12.04 11.69L12.04 11.69Q11.20 11.03 11.20 9.41L11.20 9.41Q11.20 6.57 14.97 4.51L14.97 4.51Q15.06 4.69 15.52 4.87Q15.97 5.05 16.45 5.05L16.45 5.05Q16.72 5.05 16.84 4.96L16.84 4.96Q17.02 4.83 17.26 4.76L17.26 4.76Q17.32 4.82 17.32 4.89L17.32 4.89Q17.32 5.05 16.93 5.52L16.93 5.52Q15.75 6.89 14.80 6.89L14.80 6.89Q14.53 6.89 14.04 6.76L14.04 6.76Q13.51 6.62 13.31 6.48L13.31 6.48Q13.22 6.66 13.08 7.08L13.08 7.08L13.09 8.04Q13.10 8.01 13.41 7.79Q13.71 7.57 13.80 7.57L13.80 7.57Q14.85 7.78 14.94 7.78L14.94 7.78Q15.88 7.78 16.31 7.49L16.31 7.49Q17.05 6.99 17.37 6.87L17.37 6.87L17.42 7.01Q16.76 8.08 15.72 8.81Q14.69 9.55 13.68 9.65L13.68 9.65Q13.82 9.91 14.63 10.25Q15.44 10.58 16.02 10.58L16.02 10.58Q16.58 10.58 17.02 10.28L17.02 10.28Q17.70 9.81 18.02 9.69L18.02 9.69Q18.07 9.74 18.07 9.81ZM27.50 10.09L27.50 10.09Q27.50 11.75 25.93 13.43L25.93 13.43Q24.44 15.02 23.18 15.02L23.18 15.02Q21.90 15.02 20.75 14.51Q19.60 14 18.75 14L18.75 14Q17.99 14 17.79 14.14Q17.60 14.28 17.39 14.43L17.39 14.43Q17.09 14.63 16.91 14.66L16.91 14.66L16.91 14.46Q16.91 14.10 18.02 13.17L18.02 13.17Q19.05 12.32 19.32 12.28L19.32 12.28Q20.02 12.15 20.41 12.15L20.41 12.15Q21.22 12.15 22.46 12.66Q23.70 13.17 24.82 13.17L24.82 13.17Q25.41 13.17 25.56 12.77L25.56 12.77Q25.65 12.54 25.65 11.76L25.65 11.76Q25.65 11.06 25.30 10.58L25.30 10.58Q24.88 10.02 24.11 10.02L24.11 10.02Q24.01 10.02 23.30 10.16L23.30 10.16Q23.28 10.04 23.23 9.76L23.23 9.76Q22.50 10.35 22.23 10.44L22.23 10.44Q22.02 10.53 21.39 10.53L21.39 10.53Q20.58 10.53 19.92 10.11L19.92 10.11Q19.12 9.60 19.12 8.69L19.12 8.69Q19.12 7.43 20.47 5.92L20.47 5.92Q21.71 4.51 23.20 3.86L23.20 3.86Q23.59 4.40 24.44 4.40L24.44 4.40Q24.72 4.40 25.82 4.00L25.82 4.00L25.97 4.00L25.97 4.17Q25.97 4.30 25.55 4.77L25.55 4.77Q25.19 5.19 25.10 5.26L25.10 5.26L25.10 8.18Q25.20 8.22 25.44 8.19L25.44 8.19Q25.77 8.18 25.77 8.18L25.77 8.18Q26.66 8.18 27.12 8.82L27.12 8.82Q27.50 9.35 27.50 10.09ZM23.32 6.26L23.32 6.26L22.26 6.26Q22.06 6.24 21.45 5.81L21.45 5.81Q21.10 6.45 21.08 6.48L21.08 6.48Q20.97 6.72 20.97 7.03L20.97 7.03Q20.97 7.53 21.51 8.11Q22.05 8.68 22.51 8.68L22.51 8.68L23.25 8.68L23.25 6.55Q23.25 6.51 23.29 6.40Q23.32 6.29 23.32 6.26ZM37.10 10.44L37.10 10.44Q36.99 10.77 36.18 11.68L36.18 11.68Q35.29 12.68 34.89 12.68L34.89 12.68Q34.83 12.68 34.22 12.11L34.22 12.11Q33.56 11.51 33.53 11.28L33.53 11.28Q33.17 11.76 32.26 12.22Q31.35 12.68 30.83 12.68L30.83 12.68Q29.95 12.68 29.34 11.89L29.34 11.89Q28.83 11.20 28.83 10.46L28.83 10.46Q28.83 8.64 30.46 6.72L30.46 6.72Q31.92 5.01 33.22 4.65L33.22 4.65Q33.26 4.63 33.42 4.55Q33.57 4.47 33.63 4.47L33.63 4.47Q33.61 4.47 34.03 4.75Q34.44 5.04 34.93 5.04L34.93 5.04Q35.45 5.04 35.67 4.93L35.67 4.93Q35.85 4.83 36.09 4.86L36.09 4.86Q36.13 5.19 35.45 5.85L35.45 5.85L35.45 7.04Q35.45 7.10 35.49 7.24Q35.53 7.38 35.53 7.42L35.53 7.42L35.53 9.59Q35.90 9.94 36.60 10.58L36.60 10.58Q36.97 10.42 37.10 10.44ZM33.56 10.39L33.56 10.39L33.56 9.37Q33.56 9.31 33.52 9.17Q33.47 9.03 33.47 8.99L33.47 8.99L33.47 7.07Q33.45 7.06 32.91 7.06L32.91 7.06Q32.66 7.06 32.28 6.79L32.28 6.79Q32.02 6.59 31.75 6.40L31.75 6.40Q31.32 6.62 31.04 7.42L31.04 7.42Q30.80 8.09 30.80 8.67L30.80 8.67Q30.80 9.31 31.28 9.95L31.28 9.95Q31.82 10.71 32.59 10.71L32.59 10.71Q32.90 10.71 33.56 10.39ZM45.42 4.47L45.42 4.47Q45.42 5.00 44.09 5.98L44.09 5.98Q42.90 6.85 42.64 6.86L42.64 6.86Q42.56 6.87 42.34 6.89Q42.11 6.92 42.07 6.92L42.07 6.92Q41.29 6.92 40.57 6.19L40.57 6.19Q40.25 6.66 40.25 7.76L40.25 7.76Q40.25 8.78 40.77 9.53L40.77 9.53Q41.41 10.47 42.60 10.47L42.60 10.47Q43.01 10.47 43.50 10.22L43.50 10.22Q44.24 9.84 44.59 9.72L44.59 9.72Q44.38 10.57 43.08 11.50Q41.78 12.43 40.84 12.43L40.84 12.43Q39.61 12.43 38.91 11.54L38.91 11.54Q38.29 10.72 38.29 9.51L38.29 9.51Q38.29 9.49 38.39 8.50L38.39 8.50Q38.46 7.81 39.41 6.43L39.41 6.43Q39.62 6.13 40.53 5.22L40.53 5.22Q41.66 4.12 42.03 4.12L42.03 4.12Q42.34 4.12 42.78 4.54Q43.22 4.96 43.83 4.96L43.83 4.96Q44.17 4.96 44.49 4.77L44.49 4.77Q45.02 4.47 45.33 4.35L45.33 4.35Q45.42 4.44 45.42 4.47ZM55.96 10.21L55.96 10.21Q55.96 11.24 55.68 11.69L55.68 11.69Q54.98 12.77 53.80 13.89L53.80 13.89Q52.35 15.27 51.46 15.27L51.46 15.27Q51.41 15.27 49.62 14.86Q47.84 14.45 47.05 14.45L47.05 14.45Q46.28 14.45 46.17 14.59L46.17 14.59Q46.02 14.81 45.58 14.90L45.58 14.90Q45.54 14.85 45.54 14.77L45.54 14.77Q45.54 14.34 46.65 13.43L46.65 13.43Q47.71 12.56 48.09 12.53L48.09 12.53Q48.30 12.52 48.79 12.52L48.79 12.52Q49.66 12.52 51.39 12.94Q53.13 13.36 53.23 13.36L53.23 13.36Q54.04 13.36 54.04 11.94L54.04 11.94Q54.04 11.35 53.76 10.77L53.76 10.77Q53.35 9.91 52.60 9.91L52.60 9.91Q52.28 9.91 51.95 10.03Q51.63 10.15 51.62 10.15L51.62 10.15Q51.58 10.15 51.56 10.13Q51.53 10.11 51.49 10.11L51.49 10.11Q51.49 10.11 51.02 10.49L51.02 10.49Q50.46 10.93 49.91 11.20L49.91 11.20Q49.13 11.58 48.40 11.58L48.40 11.58Q45.96 11.58 45.96 9.23L45.96 9.23Q45.96 8.48 46.35 7.69L46.35 7.69Q46.62 7.14 47.39 6.01L47.39 6.01Q47.38 5.99 46.27 5.99L46.27 5.99Q46.23 5.94 46.23 5.87L46.23 5.87Q46.23 5.47 47.07 4.76L47.07 4.76Q47.80 4.13 48.05 4.07L48.05 4.07L49.90 4.12Q49.55 4.68 48.45 5.91L48.45 5.91Q47.88 6.55 47.88 7.42L47.88 7.42Q47.88 9.66 50.13 9.66L50.13 9.66Q50.61 9.66 51.46 9.28L51.46 9.28L51.46 6.40Q51.46 6.37 51.43 6.20Q51.39 6.03 51.39 5.95L51.39 5.95Q51.18 5.88 50.64 5.57L50.64 5.57Q50.67 5.29 51.35 4.48L51.35 4.48Q52.08 3.61 52.49 3.61L52.49 3.61Q52.47 3.61 53.30 4.12L53.30 4.12Q53.35 4.68 53.35 5.43L53.35 5.43L53.38 8.11Q54.33 7.99 54.33 7.99L54.33 7.99Q55.19 7.99 55.64 8.86L55.64 8.86Q55.96 9.49 55.96 10.21ZM73.26 8.05L73.26 8.05Q73.26 9.10 71.76 10.79L71.76 10.79Q70.21 12.54 69.08 12.54L69.08 12.54Q68.38 12.54 66.90 12.01Q65.42 11.48 64.18 11.48L64.18 11.48Q63.52 11.48 63.27 11.66L63.27 11.66Q62.93 11.91 62.68 11.97L62.68 11.97Q62.59 11.89 62.59 11.86L62.59 11.86Q62.59 11.35 63.66 10.35L63.66 10.35Q64.65 9.39 64.99 9.37L64.99 9.37Q65.07 9.37 65.38 9.27Q65.69 9.18 66.35 9.18L66.35 9.18Q67.52 9.18 68.21 9.39L68.21 9.39Q70.08 10.02 70.94 10.23L70.94 10.23Q70.95 10.22 70.95 10.09L70.95 10.09Q70.95 9.39 70.22 8.69Q69.48 7.98 68.74 7.98L68.74 7.98L67.65 7.98Q67.61 7.98 67.52 7.92Q67.44 7.87 67.40 7.87L67.40 7.87L66.37 7.87Q66.16 7.87 65.20 7.49L65.20 7.49Q64.41 7.18 64.20 7.07L64.20 7.07Q63.94 6.94 63.64 6.30L63.64 6.30Q63.38 5.70 63.38 5.42L63.38 5.42Q63.38 4.54 64.08 3.53L64.08 3.53Q64.75 2.59 65.83 1.81L65.83 1.81Q66.11 1.55 66.40 1.30L66.40 1.30Q66.89 0.88 67.12 0.88L67.12 0.88Q67.19 0.88 67.23 0.92L67.23 0.92Q67.35 1.05 68.06 1.39Q68.77 1.74 68.92 1.74L68.92 1.74Q68.96 1.74 68.99 1.72Q69.02 1.71 69.06 1.71L69.06 1.71Q69.09 1.71 69.31 1.82Q69.52 1.93 69.62 1.95L69.62 1.95Q70.94 2.17 71.53 2.17L71.53 2.17Q71.93 2.17 71.98 2.15Q72.03 2.13 72.60 1.85L72.60 1.85L72.81 1.90Q72.31 3.00 71.32 3.73Q70.34 4.47 69.43 4.47L69.43 4.47Q68.21 4.47 67.27 4.20L67.27 4.20Q65.91 3.81 65.81 3.78L65.81 3.78Q65.93 4.05 66.04 4.30L66.04 4.30Q66.21 4.63 66.42 4.75L66.42 4.75Q67.97 5.56 69.05 5.56L69.05 5.56Q69.08 5.56 69.22 5.54Q69.37 5.53 69.41 5.53L69.41 5.53Q69.45 5.53 69.73 5.60Q70.01 5.67 70.06 5.67L70.06 5.67L71.08 5.67Q71.62 5.67 72.34 6.27Q73.07 6.87 73.14 7.35L73.14 7.35Q73.16 7.50 73.21 7.61Q73.26 7.71 73.26 8.05ZM83.79 10.95L83.79 10.95Q83.79 11.34 82.91 12.11L82.91 12.11Q82.11 12.80 81.87 12.85L81.87 12.85Q81.62 12.31 80.85 12.31L80.85 12.31Q80.51 12.31 79.83 12.46L79.83 12.46L79.28 12.40Q79.60 11.86 80.08 11.24L80.08 11.24Q80.46 10.74 80.57 10.50L80.57 10.50Q80.74 10.12 80.74 9.53L80.74 9.53Q80.74 8.64 80.22 7.67L80.22 7.67Q79.56 6.41 78.48 6.41L78.48 6.41Q78.22 6.41 77.28 7.34L77.28 7.34L77.28 8.92Q77.28 8.96 77.25 9.01Q77.21 9.06 77.21 9.10L77.21 9.10L77.21 10.35Q77.21 10.35 77.64 10.67L77.64 10.67Q77.98 10.92 77.98 11.02L77.98 11.02Q77.98 11.41 77.10 12.18L77.10 12.18Q76.31 12.87 76.05 12.92L76.05 12.92Q75.96 12.82 75.22 12.25L75.22 12.25L75.22 10.78Q75.22 10.72 75.26 10.70Q75.31 10.67 75.31 10.61L75.31 10.61L75.31 8.46Q75.31 8.41 75.26 8.34Q75.22 8.26 75.22 8.20L75.22 8.20L75.22 4.07Q75.00 3.79 74.40 3.28L74.40 3.28Q74.24 3.36 74.09 3.46L74.09 3.46Q73.88 3.58 73.64 3.61L73.64 3.61L73.64 3.42Q73.64 3.08 74.77 2.11L74.77 2.11Q75.87 1.18 76.10 1.18L76.10 1.18Q76.22 1.18 76.71 1.66Q77.20 2.14 77.21 2.24L77.21 2.24L77.27 6.57Q79.42 4.44 80.25 4.44L80.25 4.44Q81.42 4.44 82.14 5.73L82.14 5.73Q82.71 6.73 82.71 7.74L82.71 7.74Q82.71 9.07 81.70 10.37L81.70 10.37Q81.89 10.37 82.24 10.35Q82.59 10.33 82.60 10.33L82.60 10.33Q82.94 10.33 83.27 10.43L83.27 10.43Q83.79 10.60 83.79 10.95ZM93.20 7.03L93.20 7.03Q93.20 8.20 91.83 9.55L91.83 9.55Q90.45 10.78 89.10 12.01L89.10 12.01Q88.94 12.17 88.44 12.26L88.44 12.26Q87.99 12.36 87.63 12.36L87.63 12.36Q86.65 12.36 85.76 11.56L85.76 11.56Q84.84 10.72 84.84 9.67L84.84 9.67Q84.84 8.26 85.96 6.47L85.96 6.47Q87.12 4.61 88.55 3.89L88.55 3.89Q88.56 3.92 88.55 4.06L88.55 4.06Q88.55 4.17 88.61 4.17L88.61 4.17Q88.75 4.17 89.29 4.03Q89.82 3.89 90.26 3.89L90.26 3.89Q91.52 3.89 92.39 4.89L92.39 4.89Q93.20 5.82 93.20 7.03ZM91.04 9.32L91.04 9.32L91.04 8.29Q91.04 7.77 90.31 6.97Q89.57 6.17 89.12 6.09L89.12 6.09Q88.54 5.99 88.35 5.99L88.35 5.99Q87.47 5.99 87.19 6.45L87.19 6.45Q87.00 6.79 87.00 7.76L87.00 7.76Q87.00 8.71 87.82 9.48Q88.65 10.25 89.53 10.25L89.53 10.25Q90.02 10.25 90.22 10.12L90.22 10.12Q90.36 10.04 91.04 9.32ZM101.26 7.27L101.26 7.27Q101.26 7.97 101.21 8.16L101.21 8.16Q101.14 8.51 100.72 9.30L100.72 9.30Q100.52 9.69 99.37 10.79L99.37 10.79Q98.13 12.00 97.72 12.00L97.72 12.00Q97.64 12.00 96.99 11.48L96.99 11.48Q96.63 12.84 96.31 13.43L96.31 13.43Q95.68 14.53 94.50 15.04L94.50 15.04Q95.34 13.16 95.34 12.39L95.34 12.39L95.34 11.23Q95.27 11.20 95.00 11.20L95.00 11.20Q94.53 11.20 94.08 11.28L94.08 11.28Q93.94 11.31 93.69 11.47L93.69 11.47Q93.39 11.65 93.27 11.69L93.27 11.69Q93.23 11.65 93.23 11.56L93.23 11.56Q93.23 11.14 94.23 10.35L94.23 10.35Q95.00 9.73 95.30 9.59L95.30 9.59Q95.28 9.04 95.26 8.43L95.26 8.43Q95.20 8.33 95.20 8.27L95.20 8.27L95.20 7.04Q94.74 6.64 94.53 6.43L94.53 6.43Q94.51 6.43 94.14 6.69L94.14 6.69Q93.93 6.83 93.77 6.79L93.77 6.79Q93.74 6.48 94.61 5.47Q95.48 4.45 95.93 4.45L95.93 4.45Q95.98 4.45 96.43 4.84L96.43 4.84Q96.94 5.26 96.99 5.46L96.99 5.46Q97.47 5.03 97.94 4.61L97.94 4.61Q98.52 4.12 98.88 4.12L98.88 4.12Q100.04 4.12 100.72 5.25L100.72 5.25Q101.26 6.17 101.26 7.27ZM99.50 8.85L99.50 8.85Q99.50 8.13 99.33 7.66Q99.16 7.20 98.66 6.48L98.66 6.48Q98.62 6.43 98.06 6.15Q97.50 5.88 97.36 5.88L97.36 5.88Q97.19 5.88 97.08 6.08Q96.96 6.29 96.96 6.40L96.96 6.40Q96.96 6.44 97.00 6.58Q97.03 6.72 97.03 6.76L97.03 6.76L97.03 7.90Q97.03 7.94 97.07 7.97Q97.10 7.99 97.10 8.04L97.10 8.04L97.10 9.44Q98.35 9.38 99.27 10.09L99.27 10.09Q99.50 9.63 99.50 8.85ZM109.10 7.27L109.10 7.27Q109.10 7.97 109.05 8.16L109.05 8.16Q108.98 8.51 108.56 9.30L108.56 9.30Q108.36 9.69 107.21 10.79L107.21 10.79Q105.97 12.00 105.56 12.00L105.56 12.00Q105.48 12.00 104.83 11.48L104.83 11.48Q104.47 12.84 104.15 13.43L104.15 13.43Q103.52 14.53 102.34 15.04L102.34 15.04Q103.18 13.16 103.18 12.39L103.18 12.39L103.18 11.23Q103.11 11.20 102.84 11.20L102.84 11.20Q102.37 11.20 101.92 11.28L101.92 11.28Q101.78 11.31 101.53 11.47L101.53 11.47Q101.23 11.65 101.11 11.69L101.11 11.69Q101.07 11.65 101.07 11.56L101.07 11.56Q101.07 11.14 102.07 10.35L102.07 10.35Q102.84 9.73 103.14 9.59L103.14 9.59Q103.12 9.04 103.10 8.43L103.10 8.43Q103.04 8.33 103.04 8.27L103.04 8.27L103.04 7.04Q102.58 6.64 102.37 6.43L102.37 6.43Q102.35 6.43 101.98 6.69L101.98 6.69Q101.77 6.83 101.61 6.79L101.61 6.79Q101.58 6.48 102.45 5.47Q103.32 4.45 103.77 4.45L103.77 4.45Q103.82 4.45 104.27 4.84L104.27 4.84Q104.78 5.26 104.83 5.46L104.83 5.46Q105.31 5.03 105.78 4.61L105.78 4.61Q106.36 4.12 106.72 4.12L106.72 4.12Q107.88 4.12 108.56 5.25L108.56 5.25Q109.10 6.17 109.10 7.27ZM107.34 8.85L107.34 8.85Q107.34 8.13 107.17 7.66Q107.00 7.20 106.50 6.48L106.50 6.48Q106.46 6.43 105.90 6.15Q105.34 5.88 105.20 5.88L105.20 5.88Q105.03 5.88 104.92 6.08Q104.80 6.29 104.80 6.40L104.80 6.40Q104.80 6.44 104.84 6.58Q104.87 6.72 104.87 6.76L104.87 6.76L104.87 7.90Q104.87 7.94 104.91 7.97Q104.94 7.99 104.94 8.04L104.94 8.04L104.94 9.44Q106.19 9.38 107.11 10.09L107.11 10.09Q107.34 9.63 107.34 8.85ZM113.15 1.85L113.36 1.85Q113.12 2.52 112.26 3.30Q111.40 4.09 110.91 4.03L110.91 4.03Q110.68 3.74 110.25 3.25L110.25 3.25Q109.83 3.57 109.66 3.57L109.66 3.57Q109.61 3.51 109.61 3.43L109.61 3.43Q109.61 3.02 110.62 2.10Q111.64 1.18 111.96 1.18L111.96 1.18Q112.10 1.18 112.42 1.53L112.42 1.53Q112.63 1.76 112.84 2.00L112.84 2.00Q112.94 1.96 113.15 1.85L113.15 1.85ZM113.40 9.34L113.40 9.34Q113.40 10.02 112.46 11.32Q111.52 12.61 110.99 12.60L110.99 12.60L110.82 12.60Q110.92 12.31 111.20 11.80L111.20 11.80Q111.41 11.44 111.41 11.14L111.41 11.14Q111.41 11.10 111.37 10.91Q111.33 10.72 111.33 10.67L111.33 10.67L111.33 8.53Q111.33 8.05 111.19 7.57L111.19 7.57Q110.99 6.93 110.63 6.93L110.63 6.93Q110.59 6.93 110.43 7.05Q110.26 7.17 110.21 7.17L110.21 7.17L109.96 7.17Q110.14 6.52 111.16 5.63L111.16 5.63Q112.11 4.79 112.45 4.82L112.45 4.82Q112.71 4.96 113.08 5.29L113.08 5.29Q113.33 5.80 113.33 6.64L113.33 6.64L113.33 8.76Q113.33 8.79 113.37 9.04Q113.40 9.28 113.40 9.34ZM123.73 10.50L123.73 10.50Q123.73 10.86 122.89 11.66Q122.04 12.46 121.76 12.46L121.76 12.46Q121.77 12.46 121.38 12.32Q120.99 12.18 120.68 12.18L120.68 12.18Q120.68 12.18 119.85 12.25L119.85 12.25Q119.76 12.17 119.76 12.11L119.76 12.11Q121.07 10.14 121.07 8.62L121.07 8.62Q121.07 7.57 121.09 8.12L121.09 8.12Q121.07 7.78 120.89 7.34L120.89 7.34Q120.81 7.11 120.70 6.88Q120.60 6.65 120.39 6.51L120.39 6.51Q120.01 6.24 119.45 6.01L119.45 6.01Q118.80 5.71 118.44 5.71L118.44 5.71Q118.16 5.71 118.09 5.77L118.09 5.77Q117.75 6.05 117.64 6.12L117.64 6.12L117.64 8.27Q117.64 8.79 117.47 9.98L117.47 9.98Q117.57 10.07 118.09 10.43L118.09 10.43Q118.50 10.71 118.50 10.77L118.50 10.77Q118.50 11.07 117.64 11.91Q116.77 12.74 116.49 12.74L116.49 12.74Q116.26 12.74 115.80 12.31Q115.35 11.89 115.35 11.70L115.35 11.70Q115.35 11.66 115.43 10.99Q115.51 10.32 115.51 10.26L115.51 10.26L115.51 7.50Q115.51 7.43 115.60 7.17L115.60 7.17Q115.40 7.04 114.46 6.41L114.46 6.41Q114.02 6.73 113.86 6.73L113.86 6.73Q113.82 6.73 113.78 6.72L113.78 6.72Q113.76 6.27 114.74 5.28Q115.72 4.28 116.20 4.28L116.20 4.28Q116.33 4.28 116.93 4.65L116.93 4.65Q117.61 5.05 117.74 5.31L117.74 5.31Q118.59 4.41 119.04 4.09L119.04 4.09Q119.67 3.64 120.29 3.64L120.29 3.64Q120.64 3.64 121.21 3.82L121.21 3.82Q122.01 4.09 122.56 4.58L122.56 4.58Q122.81 4.80 123.02 5.56L123.02 5.56Q123.20 6.23 123.20 6.69L123.20 6.69Q123.20 8.11 122.09 10.07L122.09 10.07Q122.56 10.11 123.02 10.15L123.02 10.15Q123.73 10.25 123.73 10.50ZM133.11 10.09L133.11 10.09Q133.11 11.75 131.54 13.43L131.54 13.43Q130.06 15.02 128.80 15.02L128.80 15.02Q127.51 15.02 126.36 14.51Q125.22 14 124.36 14L124.36 14Q123.61 14 123.41 14.14Q123.21 14.28 123.00 14.43L123.00 14.43Q122.71 14.63 122.53 14.66L122.53 14.66L122.53 14.46Q122.53 14.10 123.63 13.17L123.63 13.17Q124.67 12.32 124.94 12.28L124.94 12.28Q125.64 12.15 126.03 12.15L126.03 12.15Q126.84 12.15 128.08 12.66Q129.32 13.17 130.44 13.17L130.44 13.17Q131.03 13.17 131.18 12.77L131.18 12.77Q131.26 12.54 131.26 11.76L131.26 11.76Q131.26 11.06 130.91 10.58L130.91 10.58Q130.49 10.02 129.72 10.02L129.72 10.02Q129.63 10.02 128.91 10.16L128.91 10.16Q128.90 10.04 128.84 9.76L128.84 9.76Q128.11 10.35 127.85 10.44L127.85 10.44Q127.64 10.53 127.01 10.53L127.01 10.53Q126.20 10.53 125.54 10.11L125.54 10.11Q124.74 9.60 124.74 8.69L124.74 8.69Q124.74 7.43 126.08 5.92L126.08 5.92Q127.33 4.51 128.81 3.86L128.81 3.86Q129.21 4.40 130.06 4.40L130.06 4.40Q130.34 4.40 131.43 4.00L131.43 4.00L131.59 4.00L131.59 4.17Q131.59 4.30 131.17 4.77L131.17 4.77Q130.80 5.19 130.72 5.26L130.72 5.26L130.72 8.18Q130.82 8.22 131.05 8.19L131.05 8.19Q131.39 8.18 131.39 8.18L131.39 8.18Q132.27 8.18 132.73 8.82L132.73 8.82Q133.11 9.35 133.11 10.09ZM128.94 6.26L128.94 6.26L127.88 6.26Q127.68 6.24 127.06 5.81L127.06 5.81Q126.71 6.45 126.70 6.48L126.70 6.48Q126.59 6.72 126.59 7.03L126.59 7.03Q126.59 7.53 127.13 8.11Q127.67 8.68 128.13 8.68L128.13 8.68L128.87 8.68L128.87 6.55Q128.87 6.51 128.91 6.40Q128.94 6.29 128.94 6.26ZM150.22 1.62L150.46 1.68Q149.73 3.07 148.66 3.87Q147.59 4.68 146.54 4.68L146.54 4.68Q145.87 4.68 145.45 4.49L145.45 4.49Q144.86 4.23 144.26 3.44L144.26 3.44Q144.09 3.56 143.85 3.79L143.85 3.79Q143.65 4.21 143.49 5.24L143.49 5.24Q143.36 6.05 143.36 6.37L143.36 6.37Q143.36 7.99 144.63 9.02L144.63 9.02Q145.78 9.97 147.36 9.97L147.36 9.97Q147.90 9.97 148.53 9.72L148.53 9.72Q149.79 9.23 149.90 9.18L149.90 9.18Q149.18 10.72 147.71 11.68L147.71 11.68Q146.36 12.54 145.01 12.54L145.01 12.54Q143.25 12.54 142.07 11.58L142.07 11.58Q140.78 10.51 140.78 8.74L140.78 8.74Q140.78 5.98 142.77 3.74L142.77 3.74Q144.06 2.28 146.65 0.67L146.65 0.67Q147.56 2.10 148.88 2.10L148.88 2.10Q149.39 2.10 149.60 1.97L149.60 1.97Q150.14 1.65 150.22 1.62L150.22 1.62ZM159.67 7.03L159.67 7.03Q159.67 8.20 158.30 9.55L158.30 9.55Q156.93 10.78 155.57 12.01L155.57 12.01Q155.41 12.17 154.91 12.26L154.91 12.26Q154.46 12.36 154.10 12.36L154.10 12.36Q153.12 12.36 152.24 11.56L152.24 11.56Q151.31 10.72 151.31 9.67L151.31 9.67Q151.31 8.26 152.43 6.47L152.43 6.47Q153.59 4.61 155.02 3.89L155.02 3.89Q155.04 3.92 155.02 4.06L155.02 4.06Q155.02 4.17 155.08 4.17L155.08 4.17Q155.22 4.17 155.76 4.03Q156.30 3.89 156.73 3.89L156.73 3.89Q157.99 3.89 158.86 4.89L158.86 4.89Q159.67 5.82 159.67 7.03ZM157.51 9.32L157.51 9.32L157.51 8.29Q157.51 7.77 156.78 6.97Q156.04 6.17 155.60 6.09L155.60 6.09Q155.01 5.99 154.83 5.99L154.83 5.99Q153.94 5.99 153.66 6.45L153.66 6.45Q153.47 6.79 153.47 7.76L153.47 7.76Q153.47 8.71 154.29 9.48Q155.12 10.25 156.00 10.25L156.00 10.25Q156.49 10.25 156.69 10.12L156.69 10.12Q156.83 10.04 157.51 9.32ZM172.16 10.32L172.16 10.32Q172.07 10.64 171.32 11.49L171.32 11.49Q170.48 12.47 170.00 12.47L170.00 12.47Q169.85 12.47 168.46 12.25L168.46 12.25Q168.56 12.03 169.37 10.67L169.37 10.67Q169.83 9.90 169.83 9.34L169.83 9.34Q169.83 8.78 169.65 8.01L169.65 8.01Q169.50 7.29 169.36 7.10L169.36 7.10Q169.04 6.64 168.03 6.12L168.03 6.12Q167.92 6.06 167.69 5.84L167.69 5.84Q167.57 5.88 167.45 5.99L167.45 5.99L167.45 7.63Q167.45 7.69 167.50 7.76Q167.54 7.83 167.54 7.88L167.54 7.88L167.54 9.81Q168.10 10.26 168.10 10.37L168.10 10.37Q168.10 10.71 167.24 11.57Q166.39 12.43 166.07 12.43L166.07 12.43Q166.03 12.43 165.75 12.21Q165.47 12.00 165.31 11.96L165.31 11.96Q165.34 11.66 165.34 10.71L165.34 10.71Q165.34 10.25 165.30 9.86Q165.26 9.46 165.26 9.44L165.26 9.44L165.26 7.22L163.17 6.13Q162.88 6.69 162.82 6.97L162.82 6.97Q162.81 7.06 162.81 7.67L162.81 7.67Q162.81 8.40 163.13 9.16L163.13 9.16Q163.60 10.23 164.46 10.23L164.46 10.23Q164.50 10.23 164.72 10.21Q164.95 10.19 165.05 10.19L165.05 10.19Q164.70 11.02 163.97 11.69L163.97 11.69Q163.20 12.39 162.57 12.39L162.57 12.39Q161.60 12.39 161.04 11.30L161.04 11.30Q160.61 10.47 160.61 9.59L160.61 9.59Q160.61 8.32 161.81 6.57Q163.00 4.83 164.30 4.30L164.30 4.30Q164.33 4.28 164.63 4.07L164.63 4.07Q164.88 3.89 164.99 3.89L164.99 3.89Q165.06 3.89 166.13 4.44Q167.20 4.98 167.48 5.19L167.48 5.19Q169.09 3.60 169.74 3.56L169.74 3.56Q169.81 3.78 170.44 4.13L170.44 4.13Q171.15 4.54 171.41 4.90Q171.67 5.26 171.85 6.10L171.85 6.10Q172.03 6.89 172.03 7.42L172.03 7.42Q172.03 8.08 171.61 8.82L171.61 8.82Q171.23 9.46 170.84 10.12L170.84 10.12Q170.90 10.21 171.37 10.25L171.37 10.25Q172.02 10.29 172.16 10.32ZM180.28 7.27L180.28 7.27Q180.28 7.97 180.22 8.16L180.22 8.16Q180.15 8.51 179.73 9.30L179.73 9.30Q179.54 9.69 178.39 10.79L178.39 10.79Q177.14 12.00 176.74 12.00L176.74 12.00Q176.65 12.00 176.01 11.48L176.01 11.48Q175.64 12.84 175.32 13.43L175.32 13.43Q174.69 14.53 173.52 15.04L173.52 15.04Q174.36 13.16 174.36 12.39L174.36 12.39L174.36 11.23Q174.29 11.20 174.02 11.20L174.02 11.20Q173.54 11.20 173.10 11.28L173.10 11.28Q172.96 11.31 172.70 11.47L172.70 11.47Q172.41 11.65 172.28 11.69L172.28 11.69Q172.24 11.65 172.24 11.56L172.24 11.56Q172.24 11.14 173.25 10.35L173.25 10.35Q174.02 9.73 174.31 9.59L174.31 9.59Q174.30 9.04 174.27 8.43L174.27 8.43Q174.22 8.33 174.22 8.27L174.22 8.27L174.22 7.04Q173.75 6.64 173.54 6.43L173.54 6.43Q173.53 6.43 173.15 6.69L173.15 6.69Q172.94 6.83 172.79 6.79L172.79 6.79Q172.76 6.48 173.63 5.47Q174.50 4.45 174.94 4.45L174.94 4.45Q175 4.45 175.45 4.84L175.45 4.84Q175.95 5.26 176.01 5.46L176.01 5.46Q176.48 5.03 176.96 4.61L176.96 4.61Q177.53 4.12 177.90 4.12L177.90 4.12Q179.06 4.12 179.73 5.25L179.73 5.25Q180.28 6.17 180.28 7.27ZM178.51 8.85L178.51 8.85Q178.51 8.13 178.35 7.66Q178.18 7.20 177.67 6.48L177.67 6.48Q177.63 6.43 177.07 6.15Q176.51 5.88 176.37 5.88L176.37 5.88Q176.20 5.88 176.09 6.08Q175.98 6.29 175.98 6.40L175.98 6.40Q175.98 6.44 176.02 6.58Q176.05 6.72 176.05 6.76L176.05 6.76L176.05 7.90Q176.05 7.94 176.09 7.97Q176.12 7.99 176.12 8.04L176.12 8.04L176.12 9.44Q177.37 9.38 178.29 10.09L178.29 10.09Q178.51 9.63 178.51 8.85ZM185.68 9.95L185.68 9.95Q185.68 10.51 184.53 11.61L184.53 11.61Q183.46 12.61 183.15 12.66L183.15 12.66Q183.05 12.53 182.52 12.11L182.52 12.11Q182.22 11.87 182.22 11.55L182.22 11.55L182.22 7.41Q182.22 7.38 182.27 7.19Q182.31 7.00 182.31 6.94L182.31 6.94L182.31 3.92Q182.10 3.61 181.92 3.44L181.92 3.44Q181.48 3.74 181.05 3.93L181.05 3.93Q180.99 3.88 180.99 3.75L180.99 3.75Q180.99 3.30 182.07 2.24Q183.15 1.18 183.61 1.18L183.61 1.18Q183.74 1.18 184.07 1.48Q184.41 1.79 184.41 1.93L184.41 1.93L184.41 5.28Q184.41 5.32 184.37 5.43Q184.32 5.54 184.32 5.60L184.32 5.60L184.32 9.59Q184.32 9.72 184.53 9.97Q184.74 10.22 184.88 10.22L184.88 10.22Q184.91 10.22 185.18 10.04Q185.44 9.87 185.63 9.81L185.63 9.81Q185.68 9.87 185.68 9.95ZM193.47 9.81L193.47 9.81Q193.47 10.32 192.14 11.31L192.14 11.31Q190.99 12.17 190.64 12.26L190.64 12.26Q190.11 12.42 189.76 12.42L189.76 12.42Q189.39 12.42 188.55 12.16Q187.70 11.90 187.43 11.69L187.43 11.69Q186.59 11.03 186.59 9.41L186.59 9.41Q186.59 6.57 190.36 4.51L190.36 4.51Q190.46 4.69 190.91 4.87Q191.37 5.05 191.84 5.05L191.84 5.05Q192.11 5.05 192.23 4.96L192.23 4.96Q192.42 4.83 192.65 4.76L192.65 4.76Q192.71 4.82 192.71 4.89L192.71 4.89Q192.71 5.05 192.32 5.52L192.32 5.52Q191.14 6.89 190.19 6.89L190.19 6.89Q189.92 6.89 189.43 6.76L189.43 6.76Q188.90 6.62 188.71 6.48L188.71 6.48Q188.61 6.66 188.47 7.08L188.47 7.08L188.48 8.04Q188.50 8.01 188.80 7.79Q189.10 7.57 189.20 7.57L189.20 7.57Q190.25 7.78 190.33 7.78L190.33 7.78Q191.27 7.78 191.70 7.49L191.70 7.49Q192.44 6.99 192.77 6.87L192.77 6.87L192.81 7.01Q192.15 8.08 191.11 8.81Q190.08 9.55 189.07 9.65L189.07 9.65Q189.21 9.91 190.02 10.25Q190.83 10.58 191.41 10.58L191.41 10.58Q191.97 10.58 192.42 10.28L192.42 10.28Q193.09 9.81 193.41 9.69L193.41 9.69Q193.47 9.74 193.47 9.81ZM207.10 9.65L207.10 9.65Q206.65 10.75 205.45 11.54L205.45 11.54Q204.30 12.29 203.28 12.29L203.28 12.29Q200.97 12.29 198.80 9.46L198.80 9.46Q198.18 10.18 197.55 10.88L197.55 10.88Q196.27 12.25 195.90 12.25L195.90 12.25Q194.96 11.77 194.89 11.77L194.89 11.77Q194.85 11.77 194.49 11.98L194.49 11.98Q194.07 12.24 193.93 12.29L193.93 12.29Q193.87 12.24 193.87 12.14L193.87 12.14Q193.87 11.49 195.16 10.51L195.16 10.51Q196.36 9.60 196.83 9.60L196.83 9.60Q196.87 9.60 197.22 9.69Q197.57 9.77 197.61 9.77L197.61 9.77Q197.68 9.77 198.41 8.93L198.41 8.93Q197.51 7.90 195.82 5.92L195.82 5.92Q195.27 6.40 194.87 6.48L194.87 6.48Q194.81 6.43 194.81 6.33L194.81 6.33Q194.81 5.84 196.20 4.70L196.20 4.70Q197.39 3.74 197.72 3.61L197.72 3.61L200.31 6.61Q200.98 5.81 201.67 5.01L201.67 5.01Q203.01 3.53 203.53 3.53L203.53 3.53Q203.57 3.53 203.75 3.71Q203.92 3.89 204.04 3.95L204.04 3.95Q204.23 4.05 204.51 4.06L204.51 4.06Q204.75 4.06 204.81 4.14L204.81 4.14Q204.48 4.83 203.77 5.50L203.77 5.50Q202.99 6.22 202.44 6.22L202.44 6.22Q202.13 6.22 202.07 6.15Q202.01 6.09 201.81 6.05L201.81 6.05L200.89 7.22Q203.06 10.11 205.24 10.11L205.24 10.11Q205.53 10.11 206.21 9.89Q206.89 9.67 207.10 9.65Z"></path></g><!----><!----></svg>